<svg width="0" height="0" class="hidden">
  <symbol  xmlns="http://www.w3.org/2000/svg" xmlns:xlink="http://www.w3.org/1999/xlink" viewBox="0 0 30 30" id="f">
    <desc>Created with Pixso.</desc>
    <defs>
      <clipPath id="clip24_199">
        <rect id="Frame" width="30.000000" height="30.000000"  fill-opacity="0"></rect>
      </clipPath>
      <clipPath id="clip2_1225">
        <rect id="f" width="30.000000" height="30.000000"  fill-opacity="0"></rect>
      </clipPath>
    </defs>
    <rect id="f" width="30.000000" height="30.000000"  fill-opacity="0"></rect>
    <g clip-path="url(#clip2_1225)">
      <rect id="Frame" width="30.000000" height="30.000000"  fill-opacity="0"></rect>
      <g clip-path="url(#clip24_199)">
        <path id="Vector" d="M17.4199 29.8066C17.2969 29.8242 17.168 29.8477 17.0449 29.8652C17.168 29.8418 17.291 29.8242 17.4199 29.8066Z"  
        fill-opacity="1.000000" fill-rule="nonzero"></path>
        <path id="Vector" d="M17.7188 29.7539C17.6602 29.7656 17.6016 29.7773 17.5371 29.7832C17.6016 29.7773 17.6602 29.7656 17.7188 29.7539Z" 
         fill-opacity="1.000000" fill-rule="nonzero"></path>
        <path id="Vector" d="M16.7051 29.9004C16.5586 29.918 16.4121 29.9297 16.2656 29.9414C16.4121 29.9355 16.5586 29.918 16.7051 29.9004Z"  
        fill-opacity="1.000000" fill-rule="nonzero"></path>
        <path id="Vector" d="M16.998 29.8652C16.9277 29.877 16.8574 29.8828 16.7871 29.8887C16.8516 29.8828 16.9277 29.877 16.998 29.8652Z"  
        fill-opacity="1.000000" fill-rule="nonzero"></path>
        <path id="Vector" d="M18.1289 29.6719C18.0762 29.6836 18.0234 29.6953 17.9707 29.707C18.0234 29.6953 18.0762 29.6836 18.1289 29.6719Z" 
         fill-opacity="1.000000" fill-rule="nonzero"></path>
        <path id="Vector" d="M19.1426 29.4199C19.1016 29.4316 19.0547 29.4434 19.0137 29.4551C19.0547 29.4434 19.0957 29.4316 19.1426 29.4199Z"  
        fill-opacity="1.000000" fill-rule="nonzero"></path>
        <path id="Vector" d="M18.832 29.502C18.7852 29.5137 18.7383 29.5254 18.6914 29.5371C18.7441 29.5312 18.7852 29.5195 18.832 29.502Z" 
         fill-opacity="1.000000" fill-rule="nonzero"></path>
        <path id="Vector" d="M18.4336 29.6074C18.3867 29.6191 18.334 29.6309 18.2871 29.6426C18.334 29.625 18.3867 29.6133 18.4336 29.6074Z"  
        fill-opacity="1.000000" fill-rule="nonzero"></path>
        <path id="Vector" d="M16.2598 29.9473C16.1836 29.9531 16.1016 29.959 16.0254 29.9648C16.1016 29.959 16.1836 29.9531 16.2598 29.9473Z"  
        fill-opacity="1.000000" fill-rule="nonzero"></path>
        <path id="Vector" d="M30 15C30 6.71484 23.2852 0 15 0C6.71484 0 0 6.71484 0 15C0 23.2852 6.71484 30 15 30C15.0879 30 15.1758 30 15.2637 29.9941L15.2637 18.3223L12.041 18.3223L12.041 14.5664L15.2637 14.5664L15.2637 11.8008C15.2637 8.5957 17.2207 6.84961 20.0801 6.84961C21.4512 6.84961 22.6289 6.94922 22.9688 6.99609L22.9688 10.3477L21 10.3477C19.4473 10.3477 19.1426 11.0859 19.1426 12.1699L19.1426 14.5605L22.8633 14.5605L22.377 18.3164L19.1426 18.3164L19.1426 29.4199C25.4121 27.6211 30 21.8496 30 15Z"  
        fill-opacity="1.000000" fill-rule="nonzero"></path>
        <path id="Vector" d="M15.9902 29.9648C15.832 29.9766 15.6797 29.9824 15.5215 29.9883C15.6797 29.9824 15.832 29.9766 15.9902 29.9648Z"  
        fill-opacity="1.000000" fill-rule="nonzero"></path>
        <path id="Vector" d="M15.5156 29.9883C15.4336 29.9883 15.3516 29.9941 15.2695 29.9941C15.3457 29.9941 15.4277 29.9941 15.5156 29.9883Z"  
        fill-opacity="1.000000" fill-rule="nonzero"></path>
      </g>
    </g>
  </symbol>
  <symbol  xmlns="http://www.w3.org/2000/svg" xmlns:xlink="http://www.w3.org/1999/xlink" viewBox="0 0 30 30" id="vk">
    <desc>Created with Pixso.</desc>
    <defs>
      <clipPath id="clip24_228">
        <rect id="Frame" width="30.000000" height="30.000000"  fill-opacity="0"></rect>
      </clipPath>
      <clipPath id="clip2_1228">
        <rect id="vk" width="30.000000" height="30.000000"  fill-opacity="0"></rect>
      </clipPath>
    </defs>
    <rect id="vk" width="30.000000" height="30.000000"  fill-opacity="0"></rect>
    <g clip-path="url(#clip2_1228)">
      <rect id="Frame" width="30.000000" height="30.000000"  fill-opacity="0"></rect>
      <g clip-path="url(#clip24_228)">
        <path id="Vector" d="M15 0C6.7178 0 0 6.71777 0 15C0 23.2822 6.7178 30 15 30C23.2822 30 30 23.2822 30 15C30 6.71777 23.2822 0 15 0ZM22.6074 16.626C23.3129 17.3008 24.0491 17.9448 24.6626 18.7114C24.9387 19.0493 25.2147 19.3867 25.3988 19.7852C25.6748 20.3374 25.4294 20.9507 24.9387 20.9814L21.8712 20.9814C21.0736 21.043 20.4601 20.7363 19.908 20.1841C19.4785 19.7544 19.0797 19.2944 18.681 18.8345C18.5276 18.6504 18.3436 18.4663 18.1288 18.3438C17.6994 18.0674 17.3313 18.1597 17.1166 18.5889C16.8712 19.0493 16.8098 19.54 16.7791 20.0308C16.7485 20.7671 16.5338 20.9507 15.7975 20.9814C14.2331 21.043 12.7607 20.8281 11.411 20.0308C10.2147 19.3252 9.26379 18.374 8.46625 17.27C6.87115 15.1226 5.67484 12.7607 4.57056 10.3374C4.32516 9.78516 4.50922 9.50928 5.12271 9.47852C6.13498 9.44775 7.11658 9.44775 8.12885 9.47852C8.52762 9.47852 8.80368 9.72412 8.95706 10.0918C9.50922 11.4111 10.1534 12.6992 10.9816 13.8652C11.1963 14.1719 11.4417 14.4785 11.7485 14.7241C12.1166 14.9692 12.362 14.8774 12.546 14.4785C12.638 14.2329 12.6994 13.957 12.7301 13.6812C12.8221 12.7607 12.8221 11.8403 12.6687 10.9204C12.5767 10.3066 12.2699 9.93848 11.6871 9.81592C11.3804 9.75439 11.4417 9.6626 11.5644 9.47852C11.8098 9.20264 12.0552 9.01855 12.5154 9.01855L15.9816 9.01855C16.5338 9.14111 16.6564 9.35596 16.7178 9.9082L16.7178 13.7729C16.7178 13.9878 16.8098 14.6318 17.2086 14.7544C17.5154 14.8467 17.7301 14.6011 17.9141 14.417C18.7423 13.5278 19.3252 12.4849 19.8773 11.4111C20.1227 10.9204 20.3068 10.4297 20.5215 9.93848C20.6748 9.57031 20.8896 9.38672 21.319 9.38672L24.6626 9.38672C24.7546 9.38672 24.8466 9.38672 24.9693 9.41699C25.5215 9.50928 25.6748 9.75439 25.5215 10.3066C25.2454 11.1655 24.7239 11.9019 24.2025 12.6074C23.6503 13.374 23.0368 14.1104 22.4846 14.9082C21.9325 15.644 21.9632 16.0122 22.6074 16.626Z"  fill-opacity="1.000000" fill-rule="nonzero"></path>
      </g>
    </g>
  </symbol>
  <symbol  xmlns="http://www.w3.org/2000/svg" xmlns:xlink="http://www.w3.org/1999/xlink" viewBox="0 0 30 30" id="in">
    <desc>Created with Pixso.</desc>
    <defs>
      <clipPath id="clip24_178">
        <rect id="Frame" width="30.000000" height="30.000000"  fill-opacity="0"></rect>
      </clipPath>
      <clipPath id="clip2_1222">
        <rect id="in" width="30.000000" height="30.000000"  fill-opacity="0"></rect>
      </clipPath>
    </defs>
    <rect id="in" width="30.000000" height="30.000000"  fill-opacity="0"></rect>
    <g clip-path="url(#clip2_1222)">
      <rect id="Frame" width="30.000000" height="30.000000"  fill-opacity="0"></rect>
      <g clip-path="url(#clip24_178)">
        <path id="Vector" d="M17.8711 15C17.8711 16.5879 16.5879 17.8711 15 17.8711C13.4121 17.8711 12.1289 16.5879 12.1289 15C12.1289 13.4121 13.4121 12.1289 15 12.1289C16.5879 12.1289 17.8711 13.4121 17.8711 15Z"  fill-opacity="1.000000" fill-rule="nonzero"></path>
        <path id="Vector" d="M21.7148 9.91992C21.5742 9.54492 21.3574 9.20508 21.0703 8.92969C20.7949 8.64258 20.4551 8.42578 20.0801 8.28516C19.7754 8.16797 19.3184 8.02734 18.4805 7.98633C17.5723 7.94531 17.2969 7.93359 15 7.93359C12.6973 7.93359 12.4277 7.93945 11.5195 7.98633C10.6816 8.02734 10.2246 8.16797 9.91992 8.28516C9.54492 8.42578 9.20508 8.64258 8.92969 8.92969C8.64258 9.20508 8.42578 9.54492 8.28516 9.91992C8.16797 10.2246 8.02734 10.6816 7.98633 11.5195C7.94531 12.4277 7.93359 12.6973 7.93359 15C7.93359 17.2969 7.94531 17.5723 7.98633 18.4805C8.02734 19.3184 8.16211 19.7754 8.28516 20.0801C8.42578 20.4551 8.64258 20.7949 8.92969 21.0703C9.20508 21.3574 9.54492 21.5742 9.91992 21.7148C10.2246 21.832 10.6816 21.9727 11.5195 22.0137C12.4277 22.0547 12.6973 22.0664 15 22.0664C17.3027 22.0664 17.5723 22.0605 18.4805 22.0137C19.3184 21.9727 19.7754 21.8379 20.0801 21.7148C20.8301 21.4277 21.4277 20.8301 21.7148 20.0801C21.832 19.7754 21.9727 19.3184 22.0137 18.4805C22.0547 17.5723 22.0664 17.2969 22.0664 15C22.0664 12.6973 22.0605 12.4277 22.0137 11.5195C21.9727 10.6816 21.832 10.2246 21.7148 9.91992ZM15 19.4238C12.5566 19.4238 10.5762 17.4434 10.5762 15C10.5762 12.5566 12.5566 10.5762 15 10.5762C17.4434 10.5762 19.4238 12.5566 19.4238 15C19.4238 17.4434 17.4434 19.4238 15 19.4238ZM19.5996 11.4375C19.0312 11.4375 18.5684 10.9746 18.5684 10.4062C18.5684 9.83789 19.0312 9.375 19.5996 9.375C20.168 9.375 20.6309 9.83789 20.6309 10.4062C20.6309 10.9746 20.168 11.4375 19.5996 11.4375Z"  fill-opacity="1.000000" fill-rule="nonzero"></path>
        <path id="Vector" d="M15 0C6.71484 0 0 6.71484 0 15C0 23.2852 6.71484 30 15 30C23.2852 30 30 23.2852 30 15C30 6.71484 23.2852 0 15 0ZM23.5605 18.5508C23.5195 19.4648 23.373 20.0918 23.1621 20.6426C22.7168 21.7969 21.8027 22.7168 20.6426 23.1621C20.0977 23.373 19.4707 23.5195 18.5508 23.5605C17.6309 23.6016 17.3379 23.6133 15 23.6133C12.6621 23.6133 12.3691 23.6016 11.4492 23.5605C10.5352 23.5195 9.9082 23.373 9.35742 23.1621C8.7832 22.9453 8.26172 22.6055 7.83398 22.166C7.39453 21.7383 7.05469 21.2168 6.83789 20.6426C6.62695 20.0977 6.48047 19.4707 6.43945 18.5508C6.39844 17.6309 6.38672 17.3379 6.38672 15C6.38672 12.6621 6.39844 12.3691 6.43945 11.4492C6.48047 10.5352 6.62695 9.9082 6.83789 9.35742C7.05469 8.7832 7.39453 8.26172 7.83398 7.83398C8.26172 7.39453 8.7832 7.05469 9.35742 6.83789C9.9082 6.62695 10.5293 6.48047 11.4492 6.43945C12.3691 6.39844 12.6621 6.38672 15 6.38672C17.3379 6.38672 17.6309 6.39844 18.5508 6.43945C19.4648 6.48047 20.0918 6.62695 20.6426 6.83789C21.2168 7.05469 21.7383 7.39453 22.166 7.83398C22.6055 8.26172 22.9453 8.7832 23.1621 9.35742C23.373 9.9082 23.5195 10.5293 23.5605 11.4492C23.6016 12.3691 23.6133 12.6621 23.6133 15C23.6133 17.3379 23.6016 17.6309 23.5605 18.5508Z"  fill-opacity="1.000000" fill-rule="nonzero"></path>
      </g>
    </g>
  </symbol>
  <symbol  xmlns="http://www.w3.org/2000/svg" xmlns:xlink="http://www.w3.org/1999/xlink" viewBox="0 0 30 30" id="tv">
    <desc>Created with Pixso.</desc>
    <defs>
      <clipPath id="clip24_166">
        <rect id="Frame" width="30.000000" height="30.000000" fill-opacity="0"></rect>
      </clipPath>
      <clipPath id="clip2_1219">
        <rect id="tv" width="30.000000" height="30.000000"  fill-opacity="0"></rect>
      </clipPath>
    </defs>
    <rect id="tv" width="30.000000" height="30.000000"  fill-opacity="0"></rect>
    <g clip-path="url(#clip2_1219)">
      <rect id="Frame" width="30.000000" height="30.000000"  fill-opacity="0"></rect>
      <g clip-path="url(#clip24_166)">
        <path id="Vector" d="M15 30C23.2852 30 30 23.2852 30 15C30 6.71484 23.2852 0 15 0C6.71484 0 0 6.71484 0 15C0 23.2852 6.71484 30 15 30ZM6.86133 14.6777L21.3281 9.09961C22.002 8.85938 22.5879 9.26367 22.3652 10.2773L19.9043 21.8789C19.7227 22.6992 19.2305 22.9043 18.5508 22.5117L14.8008 19.7461L12.9902 21.4863C12.791 21.6855 12.6211 21.8555 12.2344 21.8555L12.498 18.041L19.4531 11.7656C19.7578 11.502 19.3828 11.3496 18.9844 11.6133L10.3945 17.0215L6.69141 15.8672C5.88867 15.6094 5.87109 15.0645 6.86133 14.6777Z"  fill-opacity="1.000000" fill-rule="nonzero"></path>
      </g>
    </g>
  </symbol>
    <symbol  xmlns="http://www.w3.org/2000/svg" xmlns:xlink="http://www.w3.org/1999/xlink" viewBox="0 0 12 12" id="phone">
    <desc>Created with Pixso.</desc>
    <defs>
      <clipPath id="clip4_1058">
        <rect id="phone" width="12.000000" height="12.000000"  fill-opacity="0"></rect>
      </clipPath>
    </defs>
    <rect id="phone" width="12.000000" height="12.000000"  fill-opacity="0"></rect>
    <g clip-path="url(#clip4_1058)">
      <path id="Vector" d="M11.9741 9.29785C11.9401 9.19531 11.7242 9.04492 11.3264 8.84619C11.2186 8.78369 11.0651 8.69824 10.8664 8.59033C10.6675 8.48242 10.487 8.38281 10.3252 8.29199C10.163 8.20117 10.0111 8.11328 9.86917 8.02783C9.8465 8.01123 9.77548 7.96143 9.65616 7.87891C9.53674 7.79639 9.436 7.73535 9.35349 7.69531C9.27112 7.65576 9.19009 7.63574 9.11057 7.63574C8.99695 7.63574 8.85504 7.7168 8.68463 7.87891C8.51425 8.04102 8.35794 8.2168 8.21597 8.40723C8.07397 8.59766 7.9234 8.77393 7.76447 8.93555C7.60529 9.09766 7.47452 9.17871 7.37238 9.17871C7.32108 9.17871 7.25714 9.16455 7.18051 9.13623C7.10391 9.10791 7.04565 9.0835 7.00565 9.06396C6.966 9.04395 6.89798 9.00391 6.80133 8.94434C6.7045 8.88477 6.65063 8.85205 6.63928 8.84619C5.86093 8.41406 5.19336 7.91992 4.63651 7.36328C4.0798 6.80615 3.58542 6.13867 3.15363 5.36035C3.14795 5.34912 3.1152 5.29492 3.0556 5.19873C2.99591 5.10205 2.95612 5.03369 2.93622 4.99414C2.91635 4.9541 2.89221 4.896 2.86383 4.81934C2.83548 4.74268 2.82123 4.67871 2.82123 4.62744C2.82123 4.52539 2.90222 4.39453 3.06418 4.23535C3.22607 4.07617 3.40225 3.92578 3.59253 3.78369C3.78296 3.64209 3.95895 3.48535 4.12091 3.31494C4.28284 3.14453 4.3638 3.00293 4.3638 2.88916C4.3638 2.80957 4.3439 2.72852 4.30417 2.646C4.2644 2.56348 4.20334 2.46289 4.12091 2.34375C4.03848 2.22412 3.98877 2.15332 3.97171 2.13037C3.88657 1.98877 3.79858 1.83643 3.70758 1.6748C3.61655 1.5127 3.51721 1.33203 3.40921 1.1333C3.3013 0.93457 3.21613 0.78125 3.15356 0.67334C2.95483 0.275391 2.80429 0.0595703 2.702 0.0258789C2.6622 0.00878906 2.60251 0 2.52304 0C2.36954 0 2.16931 0.0283203 1.92215 0.0854492C1.67493 0.14209 1.48041 0.20166 1.33835 0.26416C1.05426 0.383301 0.753143 0.72998 0.434937 1.30371C0.145172 1.83789 0.000305176 2.36621 0.000305176 2.88916C0.000305176 3.04248 0.0102539 3.19141 0.0301208 3.33643C0.0500183 3.48145 0.0855408 3.64453 0.136719 3.82666C0.187836 4.0083 0.229065 4.14355 0.260223 4.23145C0.291412 4.31934 0.34964 4.47705 0.434906 4.7041C0.52005 4.93164 0.571228 5.0708 0.588287 5.12158C0.787109 5.67871 1.02292 6.17578 1.29559 6.61328C1.74426 7.34033 2.35654 8.09229 3.13205 8.86768C3.90759 9.64307 4.65903 10.2554 5.38629 10.7041C5.82376 10.9771 6.32104 11.2129 6.87781 11.4116C6.92896 11.4287 7.06808 11.4795 7.29529 11.5649C7.52258 11.6504 7.68027 11.7085 7.76828 11.7397C7.85632 11.771 7.99139 11.8125 8.17303 11.8638C8.35507 11.9146 8.51828 11.9502 8.66315 11.9702C8.80811 11.9897 8.95728 12 9.1106 12C9.63321 12 10.1617 11.855 10.6958 11.5654C11.2695 11.2471 11.616 10.9463 11.7353 10.6616C11.7981 10.52 11.8575 10.3252 11.9143 10.0781C11.9713 9.83105 11.9996 9.63086 11.9996 9.47705C11.9998 9.39746 11.9912 9.33789 11.9741 9.29785Z"  fill-opacity="1.000000" fill-rule="nonzero"></path>
    </g>
  </symbol>
  
</svg>





