<svg width="32.000000" height="32.000000" viewBox="0 0 32 32" fill="none" xmlns="http://www.w3.org/2000/svg" xmlns:xlink="http://www.w3.org/1999/xlink">
	<desc>
			Created with Pixso.
	</desc>
	<defs>
		<clipPath id="clip32_463">
			<rect id="charger 1" width="24.000000" height="24.000000" transform="translate(4.000000 4.000000)" fill="white" fill-opacity="0"/>
		</clipPath>
		<clipPath id="clip32_462">
			<rect id="almond" width="32.000000" height="32.000000" fill="white" fill-opacity="0"/>
		</clipPath>
	</defs>
	<rect id="almond" width="32.000000" height="32.000000" fill="#FFFFFF" fill-opacity="0"/>
	<g clip-path="url(#clip32_462)">
		<rect id="charger 1" width="24.000000" height="24.000000" transform="translate(4.000000 4.000000)" fill="#FFFFFF" fill-opacity="0"/>
		<g clip-path="url(#clip32_463)">
			<path id="Vector" d="M26.08 11.2274L26.08 9.1261C26.08 8.73633 25.7639 8.42029 25.3741 8.42029L22.096 8.42029C21.7061 8.42029 21.3901 8.73633 21.3901 9.1261L21.3901 11.2274C21.0301 11.2596 20.7478 11.5618 20.7478 11.9302L20.7478 15.7258C20.7478 16.5907 21.4515 17.2943 22.3163 17.2943L23.0292 17.2943L23.0292 24.8141C23.0292 25.7924 22.233 26.5883 21.2546 26.5883L13.5383 26.5883C12.5601 26.5883 11.7642 25.7924 11.7642 24.8141L11.7642 23.2941L13.2654 23.2941C13.6552 23.2941 13.9713 22.978 13.9713 22.5883L13.9713 20.298L14.7211 20.298C15.8887 20.298 16.8387 19.348 16.8387 18.1804L16.8387 11.7782C16.8387 10.826 16.207 10.0189 15.3407 9.7533L15.3407 7.33276C15.3407 6.94287 15.0247 6.62683 14.6348 6.62683L13.647 6.62683L13.647 4.70593C13.647 4.31604 13.331 4 12.9412 4C12.5513 4 12.2353 4.31604 12.2353 4.70593L12.2353 6.62683L9.88141 6.62683L9.88141 4.70593C9.88141 4.31604 9.56537 4 9.17554 4C8.78564 4 8.4696 4.31604 8.4696 4.70593L8.4696 6.62683L7.48187 6.62683C7.09204 6.62683 6.776 6.94287 6.776 7.33276L6.776 9.7533C5.90967 10.0189 5.27795 10.826 5.27795 11.7782L5.27795 18.1804C5.27795 19.348 6.22791 20.298 7.39563 20.298L8.14539 20.298L8.14539 22.5883C8.14539 22.978 8.46143 23.2941 8.85126 23.2941L10.3525 23.2941L10.3525 24.8141C10.3525 26.5708 11.7816 28 13.5383 28L21.2546 28C23.0115 28 24.4409 26.5708 24.4409 24.8141L24.4409 17.2943L25.1535 17.2943C26.0184 17.2943 26.722 16.5907 26.722 15.7258L26.722 11.9302C26.722 11.5618 26.4398 11.2598 26.08 11.2274ZM13.9289 8.03857L13.9289 9.66052L8.18774 9.66052L8.18774 8.03857L13.9289 8.03857ZM6.6897 18.1804L6.6897 11.7782C6.6897 11.389 7.00635 11.0724 7.39557 11.0724L14.7211 11.0724C15.1103 11.0724 15.4269 11.389 15.4269 11.7782L15.4269 18.1804C15.4269 18.5696 15.1103 18.8862 14.7211 18.8862C14.4252 18.8862 7.73242 18.8862 7.39557 18.8862C7.00635 18.8862 6.6897 18.5696 6.6897 18.1804ZM9.55713 20.298L12.5595 20.298L12.5595 21.8823L9.55713 21.8823L9.55713 20.298ZM24.6682 9.83203L24.6682 11.2242L22.8019 11.2242L22.8019 9.83203L24.6682 9.83203ZM25.3103 15.7258C25.3103 15.8123 25.2399 15.8826 25.1535 15.8826C25.0671 15.8826 23.1153 15.8826 22.3163 15.8826C22.2299 15.8826 22.1595 15.8123 22.1595 15.7258L22.1595 12.636L25.3103 12.636L25.3103 15.7258Z" fill="#000000" fill-opacity="1.000000" fill-rule="nonzero"/>
			<path id="Vector" d="M10.1638 15.6851L10.8799 15.6851L10.5677 16.4089C10.4134 16.7668 10.5785 17.1823 10.9364 17.3367C11.295 17.4911 11.71 17.3256 11.8641 16.9679L12.6011 15.2588C12.802 14.7928 12.4592 14.2734 11.9529 14.2734L11.2368 14.2734L11.5489 13.5497C11.7032 13.1917 11.5381 12.7762 11.1802 12.6219C10.8221 12.4677 10.4069 12.6327 10.2526 12.9906L9.51556 14.6997C9.31464 15.1656 9.65741 15.6851 10.1638 15.6851Z" fill="#000000" fill-opacity="1.000000" fill-rule="nonzero"/>
		</g>
	</g>
</svg>
