<svg width="32.000000" height="32.000000" viewBox="0 0 32 32" fill="none" xmlns="http://www.w3.org/2000/svg" xmlns:xlink="http://www.w3.org/1999/xlink">
	<desc>
			Created with Pixso.
	</desc>
	<defs>
		<clipPath id="clip32_476">
			<rect id="patent 1" width="24.000000" height="24.000000" transform="translate(4.000000 4.000000)" fill="white" fill-opacity="0"/>
		</clipPath>
		<clipPath id="clip32_475">
			<rect id="apitherapy" width="32.000000" height="32.000000" fill="white" fill-opacity="0"/>
		</clipPath>
	</defs>
	<rect id="apitherapy" width="32.000000" height="32.000000" fill="#FFFFFF" fill-opacity="0"/>
	<g clip-path="url(#clip32_475)">
		<rect id="patent 1" width="24.000000" height="24.000000" transform="translate(4.000000 4.000000)" fill="#FFFFFF" fill-opacity="0"/>
		<g clip-path="url(#clip32_476)">
			<path id="Vector" d="M28 5.78125L4 5.78125L4 23.2266L18.7643 23.2266L18.7643 26.2543L21.3884 24.9725L24.0125 26.2543L24.0125 23.2266L28 23.2266L28 5.78125ZM21.3884 20.4131C20.0701 20.4131 18.9978 19.3406 18.9978 18.0225C18.9978 16.7042 20.0701 15.6318 21.3884 15.6318C22.7066 15.6318 23.7791 16.7042 23.7791 18.0225C23.7791 19.3406 22.7066 20.4131 21.3884 20.4131ZM21.3884 23.4075L20.1706 24.0022L20.1706 21.6177C20.5531 21.7477 20.9623 21.8193 21.3884 21.8193C21.8143 21.8193 22.2236 21.7477 22.6063 21.6177L22.6063 24.0022L21.3884 23.4075ZM26.5938 21.8203L24.0125 21.8203L24.0125 20.7626C24.7343 20.071 25.1853 19.0986 25.1853 18.0225C25.1853 15.9287 23.4821 14.2256 21.3884 14.2256C19.2948 14.2256 17.5916 15.9287 17.5916 18.0225C17.5916 19.0986 18.0424 20.0712 18.7643 20.7626L18.7643 21.8203L5.40625 21.8203L5.40625 7.1875L26.5938 7.1875L26.5938 21.8203Z" fill="#000000" fill-opacity="1.000000" fill-rule="nonzero"/>
			<path id="Vector" d="M6.81415 11.4106L25.1859 11.4106L25.1859 12.8169L6.81415 12.8169L6.81415 11.4106Z" fill="#000000" fill-opacity="1.000000" fill-rule="nonzero"/>
			<path id="Vector" d="M8.92517 8.59595L23.0748 8.59595L23.0748 10.0022L8.92517 10.0022L8.92517 8.59595Z" fill="#000000" fill-opacity="1.000000" fill-rule="nonzero"/>
			<path id="Vector" d="M6.81415 19.0056L13.6544 19.0056L13.6544 20.4119L6.81415 20.4119L6.81415 19.0056Z" fill="#000000" fill-opacity="1.000000" fill-rule="nonzero"/>
			<path id="Vector" d="M6.81415 16.1908L13.6544 16.1908L13.6544 17.597L6.81415 17.597L6.81415 16.1908Z" fill="#000000" fill-opacity="1.000000" fill-rule="nonzero"/>
		</g>
	</g>
</svg>
