<svg width="91.000000" height="91.000000" viewBox="0 0 91 91" fill="none" xmlns="http://www.w3.org/2000/svg" xmlns:xlink="http://www.w3.org/1999/xlink">
	<desc>
			Created with Pixso.
	</desc>
	<defs>
		<clipPath id="clip24_1166">
			<rect id="gear 1" width="42.000000" height="42.000000" transform="translate(25.000000 25.000000)" fill="white" fill-opacity="0"/>
		</clipPath>
	</defs>
	<rect id="Rectangle 2" rx="4.000000" width="91.000000" height="91.000000" fill="#9A9A9A" fill-opacity="1.000000"/>
	<rect id="gear 1" width="42.000000" height="42.000000" transform="translate(25.000000 25.000000)" fill="#FFFFFF" fill-opacity="0"/>
	<g clip-path="url(#clip24_1166)">
		<path id="Vector" d="M46 35.1111C39.9955 35.1111 35.1111 39.9955 35.1111 46C35.1111 52.0044 39.9955 56.8889 46 56.8889C52.0044 56.8889 56.8889 52.0044 56.8889 46C56.8889 39.9955 52.0044 35.1111 46 35.1111ZM46 55.3333C40.8534 55.3333 36.6666 51.1465 36.6666 46C36.6666 40.8534 40.8534 36.6666 46 36.6666C51.1465 36.6666 55.3333 40.8534 55.3333 46C55.3333 51.1465 51.1465 55.3333 46 55.3333Z" fill="#FFFFFF" fill-opacity="1.000000" fill-rule="nonzero"/>
		<path id="Vector" d="M64.8378 41.3334L63.2682 41.3334C62.8677 39.8462 62.2789 38.4229 61.5104 37.089L62.6196 35.9799C63.0279 35.5715 63.2527 35.0278 63.2527 34.4508C63.2527 33.8729 63.0279 33.33 62.6196 32.9209L59.0783 29.3796C58.2617 28.5637 56.8376 28.5623 56.0193 29.3796L54.9102 30.4888C53.5756 29.7211 52.153 29.1323 50.6667 28.7318L50.6667 27.1622C50.6667 25.9698 49.6968 25 48.5044 25L43.4956 25C42.3032 25 41.3333 25.9698 41.3333 27.1622L41.3333 28.7318C39.847 29.1323 38.4244 29.7211 37.089 30.4895L35.9799 29.3805C35.1624 28.5623 33.7375 28.5637 32.9209 29.3805L29.3797 32.9216C28.9713 33.33 28.7466 33.8737 28.7466 34.4515C28.7466 35.0287 28.9713 35.5715 29.3797 35.9807L30.4888 37.0897C29.7211 38.4229 29.1316 39.8462 28.7318 41.3334L27.1622 41.3334C25.9699 41.3334 25 42.3032 25 43.4956L25 48.5037C25 49.6968 25.9699 50.6666 27.1622 50.6666L28.7318 50.6666C29.1323 52.153 29.7211 53.5756 30.4896 54.911L29.3804 56.0201C28.9721 56.4285 28.7473 56.9722 28.7473 57.5492C28.7473 58.1271 28.9721 58.67 29.3804 59.0791L32.9217 62.6204C33.7383 63.4377 35.1632 63.4386 35.9807 62.6204L37.0898 61.5112C38.4252 62.2789 39.8478 62.8684 41.3341 63.269L41.3341 64.8385C41.3341 66.0309 42.304 67.0007 43.4963 67.0007L48.5044 67.0007C49.6968 67.0007 50.6667 66.0309 50.6667 64.8385L50.6667 63.269C52.153 62.8684 53.5756 62.2797 54.911 61.5112L56.0201 62.6204C56.8383 63.4386 58.2617 63.437 59.0791 62.6204L62.6203 59.0791C63.0287 58.6708 63.2534 58.1271 63.2534 57.5492C63.2534 56.9722 63.0287 56.4292 62.6203 56.0201L61.5112 54.911C62.2789 53.5756 62.8684 52.153 63.269 50.6666L64.8385 50.6666C66.0309 50.6666 67.0008 49.6968 67.0008 48.5044L67.0008 43.4956C67 42.3032 66.0301 41.3334 64.8378 41.3334ZM65.4444 48.5044C65.4444 48.8389 65.1722 49.1111 64.8378 49.1111L62.044 49.1111L61.904 49.7123C61.4988 51.4523 60.8159 53.1034 59.8717 54.6208L59.545 55.1451L61.5198 57.1199C61.757 57.3571 61.757 57.7421 61.5198 57.9785L57.9785 61.5198C57.7421 61.7562 57.3571 61.7578 57.1199 61.5198L55.1451 59.545L54.6209 59.8717C53.1042 60.8159 51.453 61.4995 49.7123 61.9041L49.1111 62.0439L49.1111 64.8378C49.1111 65.1722 48.8389 65.4445 48.5044 65.4445L43.4956 65.4445C43.1611 65.4445 42.8889 65.1722 42.8889 64.8378L42.8889 62.0439L42.2877 61.9041C40.5478 61.4988 38.8966 60.8159 37.3791 59.8717L36.8549 59.545L34.8801 61.5198C34.6421 61.7578 34.2571 61.7562 34.0214 61.5198L30.4802 57.9785C30.243 57.7413 30.243 57.3563 30.4802 57.1199L32.455 55.1451L32.1283 54.6208C31.1841 53.1042 30.5004 51.453 30.096 49.7123L29.956 49.1111L27.1622 49.1111C26.8278 49.1111 26.5556 48.8389 26.5556 48.5044L26.5556 43.4956C26.5556 43.1611 26.8278 42.8889 27.1622 42.8889L29.956 42.8889L30.096 42.2877C30.5012 40.547 31.1841 38.8958 32.1283 37.3792L32.455 36.8549L30.4802 34.8801C30.243 34.6429 30.243 34.2579 30.4802 34.0215L34.0214 30.4802C34.2579 30.2438 34.6429 30.2422 34.8801 30.4802L36.8549 32.455L37.3791 32.1283C38.8958 31.1841 40.547 30.5005 42.2877 30.0959L42.8889 29.9561L42.8889 27.1622C42.8889 26.8278 43.1611 26.5555 43.4956 26.5555L48.5037 26.5555C48.8389 26.5555 49.1111 26.8278 49.1111 27.1622L49.1111 29.9561L49.7123 30.0959C51.4522 30.5012 53.1034 31.1841 54.6209 32.1283L55.1451 32.455L57.1199 30.4802C57.3579 30.2422 57.7429 30.2438 57.9785 30.4802L61.5198 34.0215C61.757 34.2587 61.757 34.6437 61.5198 34.8801L59.545 36.8549L59.8717 37.3792C60.8159 38.895 61.4996 40.5463 61.904 42.2877L62.044 42.8889L64.8378 42.8889C65.1722 42.8889 65.4444 43.1611 65.4444 43.4956L65.4444 48.5044Z" fill="#FFFFFF" fill-opacity="1.000000" fill-rule="nonzero"/>
		<path id="Vector" d="M46 38.2222C41.7113 38.2222 38.2222 41.7113 38.2222 46C38.2222 50.2886 41.7113 53.7777 46 53.7777C50.2887 53.7777 53.7778 50.2886 53.7778 46C53.7778 41.7113 50.2887 38.2222 46 38.2222ZM46 52.2222C42.5692 52.2222 39.7778 49.4307 39.7778 46C39.7778 42.5692 42.5692 39.7777 46 39.7777C49.4308 39.7777 52.2222 42.5692 52.2222 46C52.2222 49.4307 49.4308 52.2222 46 52.2222Z" fill="#FFFFFF" fill-opacity="1.000000" fill-rule="nonzero"/>
	</g>
</svg>
