<svg width="276" height="267" viewBox="0 0 276 267" fill="none" xmlns="http://www.w3.org/2000/svg">
<path d="M49.2615 171.856H42.0615V169.096L48.4695 159.424H52.4295V169.336H54.1095V171.856H52.4295V175H49.2615V171.856ZM49.2615 169.336V162.736L45.0615 169.336H49.2615ZM62.2954 175.24C61.5914 175.24 61.0154 175.216 60.5674 175.168C60.1194 175.12 59.6314 175.024 59.1034 174.88C58.5594 174.72 58.1194 174.496 57.7834 174.208C57.4474 173.904 57.1674 173.472 56.9434 172.912C56.7034 172.368 56.5834 171.712 56.5834 170.944V163.48C56.5834 162.744 56.6954 162.096 56.9194 161.536C57.1434 160.976 57.4314 160.536 57.7834 160.216C58.0874 159.944 58.5034 159.728 59.0314 159.568C59.5594 159.392 60.0874 159.28 60.6154 159.232C61.2234 159.2 61.7834 159.184 62.2954 159.184C63.0154 159.184 63.5914 159.208 64.0234 159.256C64.4554 159.288 64.9354 159.384 65.4634 159.544C66.0394 159.72 66.4954 159.952 66.8314 160.24C67.1674 160.528 67.4554 160.944 67.6954 161.488C67.9354 162.032 68.0554 162.696 68.0554 163.48V170.944C68.0554 171.68 67.9354 172.328 67.6954 172.888C67.4714 173.448 67.1834 173.88 66.8314 174.184C66.5114 174.456 66.0714 174.68 65.5114 174.856C64.9674 175.032 64.4474 175.136 63.9514 175.168C63.5034 175.216 62.9514 175.24 62.2954 175.24ZM62.3434 172.984C63.0154 172.984 63.4954 172.944 63.7834 172.864C64.0714 172.768 64.2634 172.6 64.3594 172.36C64.4554 172.12 64.5034 171.728 64.5034 171.184V163.24C64.5034 162.696 64.4554 162.304 64.3594 162.064C64.2634 161.824 64.0714 161.664 63.7834 161.584C63.4954 161.488 63.0154 161.44 62.3434 161.44C61.6554 161.44 61.1594 161.488 60.8554 161.584C60.5674 161.664 60.3754 161.824 60.2794 162.064C60.1834 162.304 60.1354 162.696 60.1354 163.24V171.184C60.1354 171.728 60.1834 172.12 60.2794 172.36C60.3754 172.6 60.5674 172.768 60.8554 172.864C61.1594 172.944 61.6554 172.984 62.3434 172.984ZM83.2125 169.864C82.8925 170.984 81.7085 171.544 79.6605 171.544C78.2845 171.544 77.3165 171.256 76.7565 170.68C76.1965 170.088 75.9165 169.2 75.9165 168.016V163.384H79.3245V167.488C79.3245 167.968 79.3565 168.336 79.4205 168.592C79.4845 168.848 79.6285 169.04 79.8525 169.168C80.0925 169.296 80.4605 169.36 80.9565 169.36C81.6445 169.36 82.1485 169.296 82.4685 169.168C82.7885 169.024 82.9885 168.824 83.0685 168.568C83.1645 168.312 83.2125 167.928 83.2125 167.416V163.384H86.7165V175H83.2125V169.864ZM93.0662 175.24C91.9782 175.24 91.1622 175.144 90.6182 174.952C90.0902 174.744 89.7142 174.384 89.4902 173.872C89.2822 173.344 89.1782 172.56 89.1782 171.52C89.1782 170.592 89.2902 169.864 89.5142 169.336C89.7542 168.808 90.1302 168.432 90.6422 168.208C91.1702 167.968 91.8902 167.848 92.8022 167.848H96.7382V167.056C96.7382 166.56 96.6662 166.192 96.5222 165.952C96.3942 165.712 96.1462 165.544 95.7782 165.448C95.4262 165.352 94.8902 165.304 94.1702 165.304C93.1782 165.304 91.8182 165.4 90.0902 165.592V163.384C91.3542 163.224 92.8342 163.144 94.5302 163.144C96.0182 163.144 97.1622 163.256 97.9622 163.48C98.7782 163.704 99.3622 164.088 99.7142 164.632C100.066 165.176 100.242 165.968 100.242 167.008V175H96.8102V173.944C96.5382 174.408 96.1702 174.736 95.7062 174.928C95.2422 175.136 94.3622 175.24 93.0662 175.24ZM94.4342 173.056C95.1382 173.056 95.6422 173.032 95.9462 172.984C96.1702 172.952 96.3222 172.904 96.4022 172.84C96.4982 172.776 96.5782 172.672 96.6422 172.528C96.7062 172.416 96.7382 172.248 96.7382 172.024V169.768H94.3382C93.7942 169.768 93.4102 169.808 93.1862 169.888C92.9622 169.952 92.8102 170.096 92.7302 170.32C92.6502 170.528 92.6102 170.904 92.6102 171.448C92.6102 171.976 92.6502 172.344 92.7302 172.552C92.8102 172.76 92.9622 172.896 93.1862 172.96C93.4262 173.024 93.8422 173.056 94.4342 173.056ZM108.989 175.24C108.381 175.24 107.901 175.224 107.549 175.192C107.197 175.176 106.765 175.136 106.253 175.072C105.741 175.008 105.317 174.896 104.981 174.736C104.661 174.576 104.325 174.336 103.973 174.016C103.317 173.472 102.989 172.544 102.989 171.232V167.368C102.989 166.312 103.229 165.432 103.709 164.728C103.885 164.472 104.141 164.24 104.477 164.032C104.829 163.808 105.181 163.632 105.533 163.504C105.821 163.408 106.205 163.328 106.685 163.264C107.165 163.2 107.589 163.16 107.957 163.144H109.229C110.125 163.144 111.301 163.288 112.757 163.576V165.88C111.109 165.496 109.845 165.304 108.965 165.304C107.349 165.304 106.541 165.848 106.541 166.936V171.208C106.541 172.44 107.429 173.056 109.205 173.056C110.069 173.056 111.309 172.88 112.925 172.528V174.832C111.469 175.104 110.157 175.24 108.989 175.24ZM120.471 175.24C119.751 175.24 119.159 175.216 118.695 175.168C118.231 175.12 117.735 175.024 117.207 174.88C116.631 174.72 116.167 174.496 115.815 174.208C115.463 173.904 115.167 173.48 114.927 172.936C114.687 172.408 114.567 171.768 114.567 171.016V167.584C114.567 166.816 114.687 166.144 114.927 165.568C115.167 164.992 115.479 164.544 115.863 164.224C116.199 163.952 116.639 163.728 117.183 163.552C117.743 163.36 118.287 163.24 118.815 163.192C119.423 163.16 119.975 163.144 120.471 163.144C121.207 163.144 121.791 163.168 122.223 163.216C122.671 163.248 123.159 163.344 123.687 163.504C124.263 163.68 124.727 163.92 125.079 164.224C125.447 164.528 125.759 164.96 126.015 165.52C126.255 166.096 126.375 166.784 126.375 167.584V171.016C126.375 171.736 126.255 172.368 126.015 172.912C125.791 173.456 125.495 173.88 125.127 174.184C124.807 174.456 124.367 174.68 123.807 174.856C123.263 175.016 122.727 175.12 122.199 175.168C121.719 175.216 121.143 175.24 120.471 175.24ZM120.471 173.056C121.127 173.056 121.623 173.008 121.959 172.912C122.295 172.8 122.527 172.632 122.655 172.408C122.799 172.184 122.871 171.856 122.871 171.424V167.032C122.871 166.392 122.703 165.944 122.367 165.688C122.031 165.432 121.399 165.304 120.471 165.304C119.543 165.304 118.911 165.432 118.575 165.688C118.239 165.944 118.071 166.392 118.071 167.032V171.424C118.071 171.856 118.135 172.184 118.263 172.408C118.407 172.632 118.647 172.8 118.983 172.912C119.319 173.008 119.815 173.056 120.471 173.056ZM129.106 163.384H135.538C136.802 163.384 137.754 163.488 138.394 163.696C139.034 163.904 139.45 164.208 139.642 164.608C139.85 164.992 139.954 165.528 139.954 166.216V166.624C139.954 167.232 139.778 167.688 139.426 167.992C139.09 168.296 138.546 168.528 137.794 168.688V168.784C138.674 168.928 139.354 169.208 139.834 169.624C140.314 170.04 140.554 170.576 140.554 171.232V171.928C140.554 172.984 140.162 173.76 139.378 174.256C138.594 174.752 137.306 175 135.514 175H129.106V163.384ZM134.314 167.968C134.938 167.968 135.402 167.928 135.706 167.848C136.01 167.768 136.218 167.648 136.33 167.488C136.442 167.312 136.498 167.056 136.498 166.72V166.432C136.498 166.128 136.354 165.896 136.066 165.736C135.794 165.576 135.186 165.496 134.242 165.496H132.562V167.968H134.314ZM134.386 172.888C135.362 172.888 136.05 172.784 136.45 172.576C136.85 172.368 137.05 172.04 137.05 171.592V171.16C137.05 170.856 136.97 170.624 136.81 170.464C136.666 170.304 136.418 170.192 136.066 170.128C135.714 170.064 135.194 170.032 134.506 170.032H132.562V172.888H134.386ZM148.583 163.384H151.895V164.536C152.103 164.024 152.511 163.664 153.119 163.456C153.727 163.248 154.631 163.144 155.831 163.144C156.839 163.144 157.647 163.224 158.255 163.384C158.879 163.544 159.351 163.8 159.671 164.152C159.975 164.504 160.183 164.896 160.295 165.328C160.407 165.744 160.463 166.32 160.463 167.056V170.872C160.463 172.024 160.295 172.912 159.959 173.536C159.623 174.16 159.103 174.6 158.399 174.856C157.711 175.112 156.767 175.24 155.567 175.24C154.415 175.24 153.583 175.144 153.071 174.952C152.559 174.76 152.231 174.384 152.087 173.824V179.992H148.583V163.384ZM154.487 173.056C155.175 173.056 155.695 173.008 156.047 172.912C156.399 172.816 156.639 172.648 156.767 172.408C156.895 172.168 156.959 171.808 156.959 171.328V167.032C156.959 166.504 156.903 166.128 156.791 165.904C156.679 165.664 156.455 165.504 156.119 165.424C155.783 165.344 155.231 165.304 154.463 165.304C153.807 165.304 153.303 165.36 152.951 165.472C152.615 165.584 152.383 165.76 152.255 166C152.143 166.24 152.087 166.584 152.087 167.032V171.328C152.087 171.808 152.143 172.168 152.255 172.408C152.383 172.648 152.615 172.816 152.951 172.912C153.287 173.008 153.799 173.056 154.487 173.056ZM166.496 175.24C165.408 175.24 164.592 175.144 164.048 174.952C163.52 174.744 163.144 174.384 162.92 173.872C162.712 173.344 162.608 172.56 162.608 171.52C162.608 170.592 162.72 169.864 162.944 169.336C163.184 168.808 163.56 168.432 164.072 168.208C164.6 167.968 165.32 167.848 166.232 167.848H170.168V167.056C170.168 166.56 170.096 166.192 169.952 165.952C169.824 165.712 169.576 165.544 169.208 165.448C168.856 165.352 168.32 165.304 167.6 165.304C166.608 165.304 165.248 165.4 163.52 165.592V163.384C164.784 163.224 166.264 163.144 167.96 163.144C169.448 163.144 170.592 163.256 171.392 163.48C172.208 163.704 172.792 164.088 173.144 164.632C173.496 165.176 173.672 165.968 173.672 167.008V175H170.24V173.944C169.968 174.408 169.6 174.736 169.136 174.928C168.672 175.136 167.792 175.24 166.496 175.24ZM167.864 173.056C168.568 173.056 169.072 173.032 169.376 172.984C169.6 172.952 169.752 172.904 169.832 172.84C169.928 172.776 170.008 172.672 170.072 172.528C170.136 172.416 170.168 172.248 170.168 172.024V169.768H167.768C167.224 169.768 166.84 169.808 166.616 169.888C166.392 169.952 166.24 170.096 166.16 170.32C166.08 170.528 166.04 170.904 166.04 171.448C166.04 171.976 166.08 172.344 166.16 172.552C166.24 172.76 166.392 172.896 166.616 172.96C166.856 173.024 167.272 173.056 167.864 173.056ZM182.443 175.24C181.067 175.24 179.971 175.144 179.155 174.952C178.355 174.76 177.723 174.328 177.259 173.656C176.811 172.968 176.587 171.936 176.587 170.56V165.688C176.587 164.264 176.811 163.096 177.259 162.184C177.723 161.272 178.339 160.56 179.107 160.048C179.891 159.536 180.859 159.112 182.011 158.776L183.211 158.464C183.867 158.304 184.587 158.12 185.371 157.912C186.155 157.688 186.827 157.464 187.387 157.24V160.216C186.475 160.664 184.923 161.128 182.731 161.608C181.787 161.816 181.035 162.064 180.475 162.352C179.931 162.624 179.523 163 179.251 163.48C178.979 163.96 178.843 164.592 178.843 165.376V166.672H178.867C179.091 165.728 179.555 165.04 180.259 164.608C180.963 164.176 182.067 163.96 183.571 163.96C184.883 163.96 185.875 164.136 186.547 164.488C187.235 164.84 187.699 165.368 187.939 166.072C188.179 166.776 188.299 167.744 188.299 168.976V170.56C188.299 171.696 188.139 172.6 187.819 173.272C187.499 173.928 186.915 174.424 186.067 174.76C185.219 175.08 184.011 175.24 182.443 175.24ZM182.491 173.056C183.195 173.056 183.707 172.992 184.027 172.864C184.347 172.736 184.555 172.544 184.651 172.288C184.747 172.032 184.795 171.648 184.795 171.136V168.16C184.795 167.568 184.747 167.144 184.651 166.888C184.555 166.616 184.355 166.424 184.051 166.312C183.747 166.2 183.251 166.144 182.563 166.144C181.843 166.144 181.307 166.216 180.955 166.36C180.619 166.488 180.387 166.704 180.259 167.008C180.147 167.296 180.091 167.72 180.091 168.28V171.136C180.091 171.632 180.147 172.016 180.259 172.288C180.387 172.544 180.619 172.736 180.955 172.864C181.307 172.992 181.819 173.056 182.491 173.056ZM196.596 175.24C195.876 175.24 195.284 175.216 194.82 175.168C194.356 175.12 193.86 175.024 193.332 174.88C192.756 174.72 192.292 174.496 191.94 174.208C191.588 173.904 191.292 173.48 191.052 172.936C190.812 172.408 190.692 171.768 190.692 171.016V167.584C190.692 166.816 190.812 166.144 191.052 165.568C191.292 164.992 191.604 164.544 191.988 164.224C192.324 163.952 192.764 163.728 193.308 163.552C193.868 163.36 194.412 163.24 194.94 163.192C195.548 163.16 196.1 163.144 196.596 163.144C197.332 163.144 197.916 163.168 198.348 163.216C198.796 163.248 199.284 163.344 199.812 163.504C200.388 163.68 200.852 163.92 201.204 164.224C201.572 164.528 201.884 164.96 202.14 165.52C202.38 166.096 202.5 166.784 202.5 167.584V171.016C202.5 171.736 202.38 172.368 202.14 172.912C201.916 173.456 201.62 173.88 201.252 174.184C200.932 174.456 200.492 174.68 199.932 174.856C199.388 175.016 198.852 175.12 198.324 175.168C197.844 175.216 197.268 175.24 196.596 175.24ZM196.596 173.056C197.252 173.056 197.748 173.008 198.084 172.912C198.42 172.8 198.652 172.632 198.78 172.408C198.924 172.184 198.996 171.856 198.996 171.424V167.032C198.996 166.392 198.828 165.944 198.492 165.688C198.156 165.432 197.524 165.304 196.596 165.304C195.668 165.304 195.036 165.432 194.7 165.688C194.364 165.944 194.196 166.392 194.196 167.032V171.424C194.196 171.856 194.26 172.184 194.388 172.408C194.532 172.632 194.772 172.8 195.108 172.912C195.444 173.008 195.94 173.056 196.596 173.056ZM208.015 165.688H204.175V163.384H215.359V165.688H211.519V175H208.015V165.688ZM217.372 163.384H220.876V167.272H222.076C223.692 167.272 224.876 167.36 225.628 167.536C226.396 167.712 226.916 168.024 227.188 168.472C227.476 168.904 227.62 169.592 227.62 170.536V171.904C227.62 173.024 227.18 173.824 226.3 174.304C225.436 174.768 224.052 175 222.148 175H217.372V163.384ZM229.516 163.384H233.02V175H229.516V163.384ZM221.98 172.816C222.62 172.816 223.092 172.776 223.396 172.696C223.7 172.6 223.9 172.456 223.996 172.264C224.092 172.072 224.14 171.784 224.14 171.4V170.752C224.14 170.4 224.076 170.136 223.948 169.96C223.836 169.768 223.628 169.64 223.324 169.576C223.036 169.512 222.604 169.48 222.028 169.48H220.828V172.816H221.98Z" fill="#292929"/>
<path fill-rule="evenodd" clip-rule="evenodd" d="M138.5 1.99808C173.018 1.99808 201 29.98 201 64.498C201 99.015 173.018 126.997 138.5 126.997C103.982 126.997 75.9999 99.015 75.9999 64.498C75.9999 29.98 103.982 1.99808 138.5 1.99808Z" fill="#F2F5F4"/>
<path d="M150.536 38H144V34H132V38H125.464C123.554 38 122 39.554 122 41.464V90.536C122 92.446 123.554 94 125.464 94H150.536C152.446 94 154 92.446 154 90.536V41.464C154 39.554 152.446 38 150.536 38ZM124 53H152V65H124V53ZM124 67H152V79H124V67ZM134 36H142V38H134V36ZM125.464 40H132H144H150.536C151.344 40 152 40.656 152 41.464V51H124V41.464C124 40.656 124.656 40 125.464 40ZM150.536 92H125.464C124.656 92 124 91.344 124 90.536V81H152V90.536C152 91.344 151.344 92 150.536 92Z" fill="black"/>
<path d="M33.8518 191.616H35.4038V196.096H40.9238V191.616H42.4758V202H40.9238V197.184H35.4038V202H33.8518V191.616ZM47.4523 202.16C46.7163 202.16 46.1456 202.091 45.7403 201.952C45.3456 201.813 45.0576 201.568 44.8763 201.216C44.7056 200.864 44.6203 200.357 44.6203 199.696C44.6203 199.109 44.7003 198.656 44.8603 198.336C45.031 198.005 45.3136 197.771 45.7083 197.632C46.1136 197.493 46.6843 197.424 47.4203 197.424H49.7403V196.192C49.7403 195.904 49.6816 195.685 49.5643 195.536C49.4576 195.376 49.271 195.264 49.0043 195.2C48.7483 195.136 48.3696 195.104 47.8683 195.104C47.0683 195.104 46.183 195.168 45.2123 195.296V194.24C46.2683 194.144 47.223 194.096 48.0763 194.096C48.9723 194.096 49.6336 194.165 50.0603 194.304C50.487 194.432 50.7803 194.661 50.9403 194.992C51.1003 195.323 51.1803 195.835 51.1803 196.528V202H49.7883V201.264C49.671 201.861 48.8923 202.16 47.4523 202.16ZM47.6923 201.216C48.215 201.216 48.6576 201.179 49.0203 201.104C49.5003 201.008 49.7403 200.784 49.7403 200.432V198.32H47.5163C47.0576 198.32 46.727 198.357 46.5243 198.432C46.3216 198.496 46.1883 198.624 46.1243 198.816C46.0603 199.008 46.0283 199.317 46.0283 199.744C46.0283 200.128 46.0656 200.427 46.1403 200.64C46.215 200.843 46.3483 200.992 46.5403 201.088C46.7323 201.173 47.0203 201.216 47.4043 201.216H47.6923ZM55.5177 202.112L52.5257 194.256H54.0937L56.2537 200.576H56.2857L58.2377 194.256H59.6937L55.8057 205.328H54.3017L55.5177 202.112ZM61.1331 194.256H62.5731V200.944H65.5971V194.256H67.0531V200.944H70.0771V194.256H71.5171V202H61.1331V194.256ZM74.1152 194.256H75.5552V197.472H79.3632V194.256H80.8032V202H79.3632V198.528H75.5552V202H74.1152V194.256ZM90.2147 194.256V202H88.7747V196.288L84.7427 202H83.3027V194.256H84.7427V200.16L88.8547 194.256H90.2147ZM92.6929 194.256H94.1329V197.6C94.2929 197.6 94.4209 197.568 94.5169 197.504C94.6236 197.429 94.7516 197.317 94.9009 197.168L97.5889 194.256H99.3489L95.8289 197.92C95.9676 197.952 96.1649 198.096 96.4209 198.352C96.6876 198.608 97.0769 199.024 97.5889 199.6L99.7489 202H97.9729L95.8609 199.6C95.5729 199.269 95.2903 199.008 95.0129 198.816C94.7996 198.677 94.6503 198.597 94.5649 198.576C94.4796 198.544 94.3943 198.528 94.3089 198.528C94.2236 198.528 94.1649 198.528 94.1329 198.528V202H92.6929V194.256ZM107.652 194.256V202H106.212V196.288L102.18 202H100.74V194.256H102.18V200.16L106.292 194.256H107.652ZM113.93 191.616H117.642C118.527 191.616 119.231 191.707 119.754 191.888C120.234 192.059 120.554 192.272 120.714 192.528C120.885 192.784 120.97 193.136 120.97 193.584V194.976C120.97 195.392 120.853 195.717 120.618 195.952C120.383 196.176 120.026 196.341 119.546 196.448V196.512C120.111 196.608 120.565 196.805 120.906 197.104C121.258 197.392 121.434 197.755 121.434 198.192V199.936C121.434 200.693 121.151 201.227 120.586 201.536C120.021 201.845 119.077 202 117.754 202H113.93V191.616ZM117.69 196.16C118.341 196.16 118.805 196.064 119.082 195.872C119.37 195.669 119.514 195.355 119.514 194.928V193.712C119.514 193.317 119.37 193.04 119.082 192.88C118.794 192.72 118.314 192.64 117.642 192.64H115.482V196.16H117.69ZM117.754 200.928C118.533 200.928 119.082 200.848 119.402 200.688C119.722 200.528 119.882 200.256 119.882 199.872V198.304C119.882 198.027 119.823 197.808 119.706 197.648C119.599 197.477 119.429 197.355 119.194 197.28C118.959 197.216 118.751 197.179 118.57 197.168C118.389 197.147 118.117 197.136 117.754 197.136H115.482V200.928H117.754ZM126.91 202.16C124.542 202.16 123.358 201.371 123.358 199.792V196.736C123.358 195.797 123.625 195.125 124.158 194.72C124.702 194.304 125.577 194.096 126.782 194.096C127.924 194.096 128.745 194.293 129.246 194.688C129.758 195.083 130.014 195.765 130.014 196.736V198.448H124.814V199.616C124.814 200.149 125.001 200.533 125.374 200.768C125.748 201.003 126.324 201.12 127.102 201.12C127.838 201.12 128.708 200.992 129.71 200.736V201.84C128.729 202.053 127.796 202.16 126.91 202.16ZM128.574 197.504V196.288C128.574 195.819 128.43 195.499 128.142 195.328C127.865 195.147 127.385 195.056 126.702 195.056C126.041 195.056 125.561 195.147 125.262 195.328C124.964 195.499 124.814 195.819 124.814 196.288V197.504H128.574ZM134.593 202.16C133.857 202.16 133.286 202.091 132.881 201.952C132.486 201.813 132.198 201.568 132.017 201.216C131.846 200.864 131.761 200.357 131.761 199.696C131.761 199.109 131.841 198.656 132.001 198.336C132.172 198.005 132.454 197.771 132.849 197.632C133.254 197.493 133.825 197.424 134.561 197.424H136.881V196.192C136.881 195.904 136.822 195.685 136.705 195.536C136.598 195.376 136.412 195.264 136.145 195.2C135.889 195.136 135.51 195.104 135.009 195.104C134.209 195.104 133.324 195.168 132.353 195.296V194.24C133.409 194.144 134.364 194.096 135.217 194.096C136.113 194.096 136.774 194.165 137.201 194.304C137.628 194.432 137.921 194.661 138.081 194.992C138.241 195.323 138.321 195.835 138.321 196.528V202H136.929V201.264C136.812 201.861 136.033 202.16 134.593 202.16ZM134.833 201.216C135.356 201.216 135.798 201.179 136.161 201.104C136.641 201.008 136.881 200.784 136.881 200.432V198.32H134.657C134.198 198.32 133.868 198.357 133.665 198.432C133.462 198.496 133.329 198.624 133.265 198.816C133.201 199.008 133.169 199.317 133.169 199.744C133.169 200.128 133.206 200.427 133.281 200.64C133.356 200.843 133.489 200.992 133.681 201.088C133.873 201.173 134.161 201.216 134.545 201.216H134.833ZM144.066 202.16C143.405 202.16 142.888 202.091 142.514 201.952C142.141 201.803 141.869 201.557 141.698 201.216C141.538 200.864 141.458 200.373 141.458 199.744V195.2H139.73V194.256H141.458V191.856H142.914V194.256H145.682V195.2H142.914V199.824C142.914 200.208 142.957 200.496 143.042 200.688C143.138 200.88 143.298 201.019 143.522 201.104C143.757 201.179 144.093 201.216 144.53 201.216C144.669 201.216 145.053 201.173 145.682 201.088V202.032C145.138 202.117 144.6 202.16 144.066 202.16ZM149.624 202.16C148.802 202.16 147.917 202.096 146.968 201.968V200.864C148.216 201.067 149.112 201.168 149.656 201.168C150.338 201.168 150.829 201.104 151.128 200.976C151.426 200.837 151.576 200.587 151.576 200.224V199.44C151.576 199.109 151.464 198.875 151.24 198.736C151.016 198.597 150.653 198.528 150.152 198.528H149.272C148.472 198.528 147.858 198.363 147.432 198.032C147.016 197.701 146.808 197.237 146.808 196.64V195.92C146.808 194.704 147.96 194.096 150.264 194.096C150.434 194.096 151.218 194.139 152.616 194.224V195.264C151.666 195.115 150.861 195.04 150.2 195.04C149.442 195.04 148.925 195.115 148.648 195.264C148.37 195.413 148.232 195.664 148.232 196.016V196.672C148.232 197.195 148.706 197.456 149.656 197.456H150.552C152.184 197.456 153 198.064 153 199.28V199.952C153 200.752 152.722 201.323 152.168 201.664C151.613 201.995 150.765 202.16 149.624 202.16ZM161.766 202.16C160.88 202.16 159.824 202.075 158.598 201.904V200.608C159.835 200.875 160.923 201.008 161.862 201.008C162.651 201.008 163.227 200.923 163.59 200.752C163.952 200.571 164.134 200.24 164.134 199.76V198.416C164.134 197.968 164.006 197.653 163.75 197.472C163.494 197.291 163.046 197.2 162.406 197.2H161.19C160.176 197.2 159.456 196.997 159.03 196.592C158.603 196.187 158.39 195.557 158.39 194.704V193.872C158.39 193.307 158.512 192.848 158.758 192.496C159.014 192.144 159.435 191.883 160.022 191.712C160.619 191.541 161.435 191.456 162.47 191.456C163.163 191.456 164.054 191.515 165.142 191.632V192.8C163.926 192.619 162.998 192.528 162.358 192.528C161.366 192.528 160.71 192.624 160.39 192.816C160.059 193.019 159.894 193.355 159.894 193.824V195.008C159.894 195.371 160.022 195.637 160.278 195.808C160.544 195.968 160.998 196.048 161.638 196.048H162.886C163.6 196.048 164.155 196.133 164.55 196.304C164.955 196.475 165.238 196.736 165.398 197.088C165.568 197.429 165.654 197.893 165.654 198.48V199.232C165.654 199.968 165.515 200.549 165.238 200.976C164.971 201.403 164.555 201.707 163.99 201.888C163.424 202.069 162.683 202.16 161.766 202.16ZM171.067 202.16C170.384 202.16 169.872 202.133 169.531 202.08C169.19 202.037 168.848 201.936 168.507 201.776C168.155 201.616 167.899 201.36 167.739 201.008C167.579 200.645 167.499 200.16 167.499 199.552V196.864C167.499 196.384 167.558 195.963 167.675 195.6C167.792 195.237 167.947 194.955 168.139 194.752C168.299 194.571 168.539 194.432 168.859 194.336C169.19 194.229 169.526 194.16 169.867 194.128C170.251 194.107 170.651 194.096 171.067 194.096C171.622 194.096 172.038 194.112 172.315 194.144C172.603 194.165 172.907 194.219 173.227 194.304C173.558 194.4 173.814 194.544 173.995 194.736C174.176 194.928 174.331 195.205 174.459 195.568C174.576 195.941 174.635 196.373 174.635 196.864V199.552C174.635 200.459 174.427 201.12 174.011 201.536C173.84 201.707 173.595 201.84 173.275 201.936C172.955 202.032 172.624 202.096 172.283 202.128C171.878 202.149 171.472 202.16 171.067 202.16ZM171.067 201.216C171.515 201.216 171.84 201.205 172.043 201.184C172.246 201.163 172.443 201.104 172.635 201.008C172.827 200.923 172.96 200.784 173.035 200.592C173.12 200.389 173.163 200.112 173.163 199.76V196.624C173.163 196.144 173.104 195.797 172.987 195.584C172.87 195.36 172.667 195.216 172.379 195.152C172.102 195.077 171.664 195.04 171.067 195.04C170.47 195.04 170.027 195.077 169.739 195.152C169.462 195.216 169.264 195.36 169.147 195.584C169.03 195.797 168.971 196.144 168.971 196.624V199.76C168.971 200.112 169.008 200.389 169.083 200.592C169.168 200.784 169.307 200.923 169.499 201.008C169.691 201.104 169.888 201.163 170.091 201.184C170.294 201.205 170.619 201.216 171.067 201.216ZM176.881 190.8H178.321V202H176.881V190.8ZM184.098 202.16C183.416 202.16 182.904 202.133 182.562 202.08C182.221 202.037 181.88 201.936 181.538 201.776C181.186 201.616 180.93 201.36 180.77 201.008C180.61 200.645 180.53 200.16 180.53 199.552V196.864C180.53 196.384 180.589 195.963 180.706 195.6C180.824 195.237 180.978 194.955 181.17 194.752C181.33 194.571 181.57 194.432 181.89 194.336C182.221 194.229 182.557 194.16 182.898 194.128C183.282 194.107 183.682 194.096 184.098 194.096C184.653 194.096 185.069 194.112 185.346 194.144C185.634 194.165 185.938 194.219 186.258 194.304C186.589 194.4 186.845 194.544 187.026 194.736C187.208 194.928 187.362 195.205 187.49 195.568C187.608 195.941 187.666 196.373 187.666 196.864V199.552C187.666 200.459 187.458 201.12 187.042 201.536C186.872 201.707 186.626 201.84 186.306 201.936C185.986 202.032 185.656 202.096 185.314 202.128C184.909 202.149 184.504 202.16 184.098 202.16ZM184.098 201.216C184.546 201.216 184.872 201.205 185.074 201.184C185.277 201.163 185.474 201.104 185.666 201.008C185.858 200.923 185.992 200.784 186.066 200.592C186.152 200.389 186.194 200.112 186.194 199.76V196.624C186.194 196.144 186.136 195.797 186.018 195.584C185.901 195.36 185.698 195.216 185.41 195.152C185.133 195.077 184.696 195.04 184.098 195.04C183.501 195.04 183.058 195.077 182.77 195.152C182.493 195.216 182.296 195.36 182.178 195.584C182.061 195.797 182.002 196.144 182.002 196.624V199.76C182.002 200.112 182.04 200.389 182.114 200.592C182.2 200.784 182.338 200.923 182.53 201.008C182.722 201.104 182.92 201.163 183.122 201.184C183.325 201.205 183.65 201.216 184.098 201.216ZM192.92 202.16C192.024 202.16 191.016 202.059 189.896 201.856V200.704C191.165 200.971 192.227 201.104 193.08 201.104C194.499 201.104 195.208 200.704 195.208 199.904V198.128C195.208 197.691 194.973 197.403 194.504 197.264C194.28 197.211 194.077 197.179 193.896 197.168C193.725 197.147 193.501 197.136 193.224 197.136H191.224V196.144H192.952C193.229 196.144 193.453 196.139 193.624 196.128C193.795 196.107 193.992 196.064 194.216 196C194.451 195.947 194.632 195.845 194.76 195.696C194.888 195.547 194.952 195.355 194.952 195.12V193.264C194.952 192.72 194.312 192.448 193.032 192.448C192.179 192.448 191.203 192.533 190.104 192.704V191.6C191.021 191.504 191.992 191.456 193.016 191.456C194.2 191.456 195.059 191.589 195.592 191.856C196.136 192.112 196.408 192.555 196.408 193.184V195.184C196.408 195.515 196.275 195.792 196.008 196.016C195.741 196.229 195.4 196.368 194.984 196.432V196.496C195.24 196.539 195.448 196.587 195.608 196.64C195.779 196.683 195.96 196.752 196.152 196.848C196.525 197.04 196.712 197.376 196.712 197.856V199.936C196.712 200.299 196.632 200.624 196.472 200.912C196.312 201.2 196.109 201.424 195.864 201.584C195.651 201.733 195.368 201.856 195.016 201.952C194.664 202.037 194.317 202.096 193.976 202.128C193.571 202.149 193.219 202.16 192.92 202.16ZM202.977 194.256H205.297L207.649 200.56H207.713L209.905 194.256H212.145V202H210.817V195.568H210.737L208.353 202H206.897L204.417 195.568H204.337V202H202.977V194.256ZM218.02 202.16C217.338 202.16 216.826 202.133 216.484 202.08C216.143 202.037 215.802 201.936 215.46 201.776C215.108 201.616 214.852 201.36 214.692 201.008C214.532 200.645 214.452 200.16 214.452 199.552V196.864C214.452 196.384 214.511 195.963 214.628 195.6C214.746 195.237 214.9 194.955 215.092 194.752C215.252 194.571 215.492 194.432 215.812 194.336C216.143 194.229 216.479 194.16 216.82 194.128C217.204 194.107 217.604 194.096 218.02 194.096C218.575 194.096 218.991 194.112 219.268 194.144C219.556 194.165 219.86 194.219 220.18 194.304C220.511 194.4 220.767 194.544 220.948 194.736C221.13 194.928 221.284 195.205 221.412 195.568C221.53 195.941 221.588 196.373 221.588 196.864V199.552C221.588 200.459 221.38 201.12 220.964 201.536C220.794 201.707 220.548 201.84 220.228 201.936C219.908 202.032 219.578 202.096 219.236 202.128C218.831 202.149 218.426 202.16 218.02 202.16ZM218.02 201.216C218.468 201.216 218.794 201.205 218.996 201.184C219.199 201.163 219.396 201.104 219.588 201.008C219.78 200.923 219.914 200.784 219.988 200.592C220.074 200.389 220.116 200.112 220.116 199.76V196.624C220.116 196.144 220.058 195.797 219.94 195.584C219.823 195.36 219.62 195.216 219.332 195.152C219.055 195.077 218.618 195.04 218.02 195.04C217.423 195.04 216.98 195.077 216.692 195.152C216.415 195.216 216.218 195.36 216.1 195.584C215.983 195.797 215.924 196.144 215.924 196.624V199.76C215.924 200.112 215.962 200.389 216.036 200.592C216.122 200.784 216.26 200.923 216.452 201.008C216.644 201.104 216.842 201.163 217.044 201.184C217.247 201.205 217.572 201.216 218.02 201.216ZM223.93 194.256H228.986V195.312H225.37V202H223.93V194.256ZM232.393 202.112L229.401 194.256H230.969L233.129 200.576H233.161L235.113 194.256H236.569L232.681 205.328H231.177L232.393 202.112ZM239.864 195.312H237.144V194.256H244.008V195.312H241.304V202H239.864V195.312ZM43.7246 213.256H45.1646V214.088C45.2819 213.427 46.1619 213.096 47.8046 213.096C48.7859 213.096 49.5272 213.304 50.0286 213.72C50.5299 214.125 50.7806 214.648 50.7806 215.288V218.472C50.7806 218.931 50.7112 219.331 50.5726 219.672C50.4446 220.013 50.2739 220.28 50.0606 220.472C49.8686 220.653 49.6019 220.797 49.2606 220.904C48.9299 221.011 48.5992 221.08 48.2686 221.112C47.9699 221.144 47.6072 221.16 47.1806 221.16C46.7112 221.16 46.2792 221.107 45.8846 221C45.5006 220.883 45.2606 220.717 45.1646 220.504V224.168H43.7246V213.256ZM47.2126 220.184C47.7672 220.184 48.1886 220.147 48.4766 220.072C48.7752 219.987 48.9886 219.837 49.1166 219.624C49.2446 219.411 49.3086 219.085 49.3086 218.648V215.8C49.3086 215.32 49.2446 214.963 49.1166 214.728C48.9886 214.493 48.7752 214.339 48.4766 214.264C48.1886 214.179 47.7619 214.136 47.1966 214.136C46.6312 214.136 46.1992 214.179 45.9006 214.264C45.6126 214.339 45.4046 214.493 45.2766 214.728C45.1486 214.963 45.0846 215.32 45.0846 215.8V218.648C45.0846 219.075 45.1486 219.4 45.2766 219.624C45.4152 219.837 45.6339 219.987 45.9326 220.072C46.2312 220.147 46.6579 220.184 47.2126 220.184ZM55.3742 221.16C54.6382 221.16 54.0675 221.091 53.6622 220.952C53.2675 220.813 52.9795 220.568 52.7982 220.216C52.6275 219.864 52.5422 219.357 52.5422 218.696C52.5422 218.109 52.6222 217.656 52.7822 217.336C52.9529 217.005 53.2355 216.771 53.6302 216.632C54.0355 216.493 54.6062 216.424 55.3422 216.424H57.6622V215.192C57.6622 214.904 57.6035 214.685 57.4862 214.536C57.3795 214.376 57.1929 214.264 56.9262 214.2C56.6702 214.136 56.2915 214.104 55.7902 214.104C54.9902 214.104 54.1049 214.168 53.1342 214.296V213.24C54.1902 213.144 55.1449 213.096 55.9982 213.096C56.8942 213.096 57.5555 213.165 57.9822 213.304C58.4089 213.432 58.7022 213.661 58.8622 213.992C59.0222 214.323 59.1022 214.835 59.1022 215.528V221H57.7102V220.264C57.5929 220.861 56.8142 221.16 55.3742 221.16ZM55.6142 220.216C56.1369 220.216 56.5795 220.179 56.9422 220.104C57.4222 220.008 57.6622 219.784 57.6622 219.432V217.32H55.4382C54.9795 217.32 54.6489 217.357 54.4462 217.432C54.2435 217.496 54.1102 217.624 54.0462 217.816C53.9822 218.008 53.9502 218.317 53.9502 218.744C53.9502 219.128 53.9875 219.427 54.0622 219.64C54.1369 219.843 54.2702 219.992 54.4622 220.088C54.6542 220.173 54.9422 220.216 55.3262 220.216H55.6142ZM64.9756 221.16C64.0156 221.16 63.2902 221.069 62.7996 220.888C62.3089 220.707 61.9676 220.392 61.7756 219.944C61.5836 219.485 61.4876 218.813 61.4876 217.928V214.808C61.4876 213.677 61.8182 212.765 62.4796 212.072C63.1516 211.368 64.1916 210.84 65.5996 210.488C66.7409 210.168 67.5996 209.896 68.1756 209.672V211.032C67.3542 211.331 66.3622 211.635 65.1996 211.944C64.5489 212.072 64.0422 212.227 63.6796 212.408C63.3169 212.589 63.0609 212.808 62.9116 213.064C62.7729 213.309 62.7089 213.619 62.7196 213.992V215C62.9649 214.531 63.3169 214.205 63.7756 214.024C64.2342 213.832 64.8262 213.736 65.5516 213.736C66.5649 213.736 67.3062 213.944 67.7756 214.36C68.2556 214.765 68.4956 215.379 68.4956 216.2V218.504C68.4956 219.197 68.3676 219.736 68.1116 220.12C67.8556 220.504 67.4716 220.776 66.9596 220.936C66.4582 221.085 65.7969 221.16 64.9756 221.16ZM65.0076 220.216C65.5729 220.216 65.9942 220.179 66.2716 220.104C66.5596 220.019 66.7622 219.864 66.8796 219.64C67.0076 219.405 67.0716 219.053 67.0716 218.584V216.216C67.0716 215.853 67.0182 215.576 66.9116 215.384C66.8049 215.181 66.6182 215.037 66.3516 214.952C66.0849 214.867 65.7062 214.824 65.2156 214.824C64.4582 214.824 63.8769 214.931 63.4716 215.144C63.0662 215.357 62.8689 215.667 62.8796 216.072L62.9116 218.584C62.9222 219.053 62.9862 219.405 63.1036 219.64C63.2316 219.864 63.4396 220.019 63.7276 220.104C64.0156 220.179 64.4422 220.216 65.0076 220.216ZM73.9733 221.16C73.2906 221.16 72.7786 221.133 72.4373 221.08C72.096 221.037 71.7546 220.936 71.4133 220.776C71.0613 220.616 70.8053 220.36 70.6453 220.008C70.4853 219.645 70.4053 219.16 70.4053 218.552V215.864C70.4053 215.384 70.464 214.963 70.5813 214.6C70.6986 214.237 70.8533 213.955 71.0453 213.752C71.2053 213.571 71.4453 213.432 71.7653 213.336C72.096 213.229 72.432 213.16 72.7733 213.128C73.1573 213.107 73.5573 213.096 73.9733 213.096C74.528 213.096 74.944 213.112 75.2213 213.144C75.5093 213.165 75.8133 213.219 76.1333 213.304C76.464 213.4 76.72 213.544 76.9013 213.736C77.0826 213.928 77.2373 214.205 77.3653 214.568C77.4826 214.941 77.5413 215.373 77.5413 215.864V218.552C77.5413 219.459 77.3333 220.12 76.9173 220.536C76.7466 220.707 76.5013 220.84 76.1813 220.936C75.8613 221.032 75.5306 221.096 75.1893 221.128C74.784 221.149 74.3786 221.16 73.9733 221.16ZM73.9733 220.216C74.4213 220.216 74.7466 220.205 74.9493 220.184C75.152 220.163 75.3493 220.104 75.5413 220.008C75.7333 219.923 75.8666 219.784 75.9413 219.592C76.0266 219.389 76.0693 219.112 76.0693 218.76V215.624C76.0693 215.144 76.0106 214.797 75.8933 214.584C75.776 214.36 75.5733 214.216 75.2853 214.152C75.008 214.077 74.5706 214.04 73.9733 214.04C73.376 214.04 72.9333 214.077 72.6453 214.152C72.368 214.216 72.1706 214.36 72.0533 214.584C71.936 214.797 71.8773 215.144 71.8773 215.624V218.76C71.8773 219.112 71.9146 219.389 71.9893 219.592C72.0746 219.784 72.2133 219.923 72.4053 220.008C72.5973 220.104 72.7946 220.163 72.9973 220.184C73.2 220.205 73.5253 220.216 73.9733 220.216ZM81.7391 214.312H79.0191V213.256H85.8831V214.312H83.1791V221H81.7391V214.312ZM89.9992 221.16C89.2632 221.16 88.6925 221.091 88.2872 220.952C87.8925 220.813 87.6045 220.568 87.4232 220.216C87.2525 219.864 87.1672 219.357 87.1672 218.696C87.1672 218.109 87.2472 217.656 87.4072 217.336C87.5779 217.005 87.8605 216.771 88.2552 216.632C88.6605 216.493 89.2312 216.424 89.9672 216.424H92.2872V215.192C92.2872 214.904 92.2285 214.685 92.1112 214.536C92.0045 214.376 91.8179 214.264 91.5512 214.2C91.2952 214.136 90.9165 214.104 90.4152 214.104C89.6152 214.104 88.7299 214.168 87.7592 214.296V213.24C88.8152 213.144 89.7699 213.096 90.6232 213.096C91.5192 213.096 92.1805 213.165 92.6072 213.304C93.0339 213.432 93.3272 213.661 93.4872 213.992C93.6472 214.323 93.7272 214.835 93.7272 215.528V221H92.3352V220.264C92.2179 220.861 91.4392 221.16 89.9992 221.16ZM90.2392 220.216C90.7619 220.216 91.2045 220.179 91.5672 220.104C92.0472 220.008 92.2872 219.784 92.2872 219.432V217.32H90.0632C89.6045 217.32 89.2739 217.357 89.0712 217.432C88.8685 217.496 88.7352 217.624 88.6712 217.816C88.6072 218.008 88.5752 218.317 88.5752 218.744C88.5752 219.128 88.6125 219.427 88.6872 219.64C88.7619 219.843 88.8952 219.992 89.0872 220.088C89.2792 220.173 89.5672 220.216 89.9512 220.216H90.2392ZM98.1766 214.312H95.4566V213.256H102.321V214.312H99.6166V221H98.1766V214.312ZM104.053 213.256H105.493V216.056H107.477C108.138 216.056 108.661 216.104 109.045 216.2C109.439 216.296 109.727 216.467 109.909 216.712C110.09 216.947 110.181 217.283 110.181 217.72V219.32C110.181 220.44 109.237 221 107.349 221H104.053V213.256ZM107.253 220.072C107.562 220.072 107.882 220.029 108.213 219.944C108.586 219.848 108.773 219.576 108.773 219.128V218.152C108.773 217.843 108.73 217.608 108.645 217.448C108.57 217.288 108.426 217.176 108.213 217.112C108.01 217.048 107.701 217.016 107.285 217.016H105.477V220.072H107.253ZM126.631 220.056V223.144H125.399V221H119.431V223.144H118.199V220.056H118.695C118.93 220.056 119.159 219.88 119.383 219.528C119.607 219.165 119.794 218.589 119.943 217.8C120.092 217 120.167 215.987 120.167 214.76V213.256H125.543V220.056H126.631ZM124.103 220.056V214.2H121.431V215.32C121.431 216.429 121.356 217.384 121.207 218.184C121.068 218.973 120.807 219.597 120.423 220.056H124.103ZM131.645 221.16C130.963 221.16 130.451 221.133 130.109 221.08C129.768 221.037 129.427 220.936 129.085 220.776C128.733 220.616 128.477 220.36 128.317 220.008C128.157 219.645 128.077 219.16 128.077 218.552V215.864C128.077 215.384 128.136 214.963 128.253 214.6C128.371 214.237 128.525 213.955 128.717 213.752C128.877 213.571 129.117 213.432 129.437 213.336C129.768 213.229 130.104 213.16 130.445 213.128C130.829 213.107 131.229 213.096 131.645 213.096C132.2 213.096 132.616 213.112 132.893 213.144C133.181 213.165 133.485 213.219 133.805 213.304C134.136 213.4 134.392 213.544 134.573 213.736C134.755 213.928 134.909 214.205 135.037 214.568C135.155 214.941 135.213 215.373 135.213 215.864V218.552C135.213 219.459 135.005 220.12 134.589 220.536C134.419 220.707 134.173 220.84 133.853 220.936C133.533 221.032 133.203 221.096 132.861 221.128C132.456 221.149 132.051 221.16 131.645 221.16ZM131.645 220.216C132.093 220.216 132.419 220.205 132.621 220.184C132.824 220.163 133.021 220.104 133.213 220.008C133.405 219.923 133.539 219.784 133.613 219.592C133.699 219.389 133.741 219.112 133.741 218.76V215.624C133.741 215.144 133.683 214.797 133.565 214.584C133.448 214.36 133.245 214.216 132.957 214.152C132.68 214.077 132.243 214.04 131.645 214.04C131.048 214.04 130.605 214.077 130.317 214.152C130.04 214.216 129.843 214.36 129.725 214.584C129.608 214.797 129.549 215.144 129.549 215.624V218.76C129.549 219.112 129.587 219.389 129.661 219.592C129.747 219.784 129.885 219.923 130.077 220.008C130.269 220.104 130.467 220.163 130.669 220.184C130.872 220.205 131.197 220.216 131.645 220.216ZM145.898 218.728H140.73V217.464L145.434 210.616H147.226V217.624H148.346V218.728H147.226V221H145.898V218.728ZM145.898 217.624V211.88L142.01 217.624H145.898ZM153.804 221.16C153.334 221.16 152.95 221.144 152.652 221.112C152.364 221.08 152.054 221.016 151.724 220.92C151.372 220.824 151.089 220.685 150.876 220.504C150.673 220.312 150.502 220.045 150.364 219.704C150.225 219.384 150.156 218.984 150.156 218.504V213.256C150.156 212.776 150.225 212.355 150.364 211.992C150.502 211.629 150.684 211.341 150.908 211.128C151.11 210.947 151.377 210.803 151.708 210.696C152.049 210.579 152.39 210.504 152.732 210.472C153.116 210.451 153.473 210.44 153.804 210.44C154.273 210.44 154.652 210.456 154.94 210.488C155.238 210.52 155.553 210.584 155.884 210.68C156.236 210.787 156.518 210.936 156.732 211.128C156.956 211.32 157.137 211.592 157.276 211.944C157.414 212.296 157.484 212.728 157.484 213.24V218.504C157.484 218.941 157.414 219.331 157.276 219.672C157.137 220.013 156.956 220.28 156.732 220.472C156.518 220.653 156.246 220.803 155.916 220.92C155.585 221.027 155.249 221.091 154.908 221.112C154.609 221.144 154.241 221.16 153.804 221.16ZM153.836 220.216C154.401 220.216 154.838 220.179 155.148 220.104C155.457 220.019 155.681 219.859 155.82 219.624C155.958 219.389 156.028 219.043 156.028 218.584V213.144C156.028 212.643 155.953 212.269 155.804 212.024C155.665 211.768 155.441 211.597 155.132 211.512C154.833 211.427 154.396 211.384 153.82 211.384C153.233 211.384 152.785 211.427 152.476 211.512C152.177 211.597 151.958 211.768 151.82 212.024C151.681 212.269 151.612 212.643 151.612 213.144V218.584C151.612 219.043 151.681 219.389 151.82 219.624C151.969 219.859 152.198 220.019 152.508 220.104C152.817 220.179 153.26 220.216 153.836 220.216ZM168.628 217.512C168.49 218.248 167.642 218.616 166.084 218.616C165.092 218.616 164.394 218.44 163.988 218.088C163.594 217.725 163.396 217.16 163.396 216.392V213.256H164.836V216.296C164.836 216.787 164.964 217.123 165.22 217.304C165.476 217.485 165.903 217.576 166.5 217.576C167.087 217.576 167.53 217.539 167.828 217.464C168.138 217.379 168.346 217.245 168.452 217.064C168.57 216.883 168.628 216.627 168.628 216.296V213.256H170.068V221H168.628V217.512ZM174.952 221.16C174.216 221.16 173.646 221.091 173.24 220.952C172.846 220.813 172.558 220.568 172.376 220.216C172.206 219.864 172.12 219.357 172.12 218.696C172.12 218.109 172.2 217.656 172.36 217.336C172.531 217.005 172.814 216.771 173.208 216.632C173.614 216.493 174.184 216.424 174.92 216.424H177.24V215.192C177.24 214.904 177.182 214.685 177.064 214.536C176.958 214.376 176.771 214.264 176.504 214.2C176.248 214.136 175.87 214.104 175.368 214.104C174.568 214.104 173.683 214.168 172.712 214.296V213.24C173.768 213.144 174.723 213.096 175.576 213.096C176.472 213.096 177.134 213.165 177.56 213.304C177.987 213.432 178.28 213.661 178.44 213.992C178.6 214.323 178.68 214.835 178.68 215.528V221H177.288V220.264C177.171 220.861 176.392 221.16 174.952 221.16ZM175.192 220.216C175.715 220.216 176.158 220.179 176.52 220.104C177 220.008 177.24 219.784 177.24 219.432V217.32H175.016C174.558 217.32 174.227 217.357 174.024 217.432C173.822 217.496 173.688 217.624 173.624 217.816C173.56 218.008 173.528 218.317 173.528 218.744C173.528 219.128 173.566 219.427 173.64 219.64C173.715 219.843 173.848 219.992 174.04 220.088C174.232 220.173 174.52 220.216 174.904 220.216H175.192ZM184.298 221.16C183.764 221.16 183.375 221.149 183.13 221.128C182.895 221.107 182.623 221.053 182.314 220.968C181.983 220.883 181.727 220.755 181.546 220.584C181.364 220.413 181.21 220.163 181.082 219.832C180.954 219.512 180.89 219.112 180.89 218.632V215.784C180.89 214.92 181.055 214.301 181.386 213.928C181.567 213.715 181.748 213.555 181.93 213.448C182.122 213.331 182.367 213.251 182.666 213.208C182.964 213.165 183.231 213.139 183.466 213.128C183.7 213.107 184.031 213.096 184.458 213.096C185.194 213.096 185.93 213.176 186.666 213.336V214.392C185.812 214.179 185.018 214.072 184.282 214.072C183.727 214.072 183.316 214.115 183.05 214.2C182.794 214.275 182.612 214.419 182.506 214.632C182.41 214.835 182.362 215.149 182.362 215.576V218.744C182.362 219.139 182.415 219.432 182.522 219.624C182.639 219.816 182.842 219.955 183.13 220.04C183.428 220.115 183.866 220.152 184.442 220.152C185.22 220.152 185.999 220.051 186.778 219.848V220.936C186.052 221.085 185.226 221.16 184.298 221.16ZM191.88 221.16C191.197 221.16 190.685 221.133 190.344 221.08C190.002 221.037 189.661 220.936 189.32 220.776C188.968 220.616 188.712 220.36 188.552 220.008C188.392 219.645 188.312 219.16 188.312 218.552V215.864C188.312 215.384 188.37 214.963 188.488 214.6C188.605 214.237 188.76 213.955 188.952 213.752C189.112 213.571 189.352 213.432 189.672 213.336C190.002 213.229 190.338 213.16 190.68 213.128C191.064 213.107 191.464 213.096 191.88 213.096C192.434 213.096 192.85 213.112 193.128 213.144C193.416 213.165 193.72 213.219 194.04 213.304C194.37 213.4 194.626 213.544 194.808 213.736C194.989 213.928 195.144 214.205 195.272 214.568C195.389 214.941 195.448 215.373 195.448 215.864V218.552C195.448 219.459 195.24 220.12 194.824 220.536C194.653 220.707 194.408 220.84 194.088 220.936C193.768 221.032 193.437 221.096 193.096 221.128C192.69 221.149 192.285 221.16 191.88 221.16ZM191.88 220.216C192.328 220.216 192.653 220.205 192.856 220.184C193.058 220.163 193.256 220.104 193.448 220.008C193.64 219.923 193.773 219.784 193.848 219.592C193.933 219.389 193.976 219.112 193.976 218.76V215.624C193.976 215.144 193.917 214.797 193.8 214.584C193.682 214.36 193.48 214.216 193.192 214.152C192.914 214.077 192.477 214.04 191.88 214.04C191.282 214.04 190.84 214.077 190.552 214.152C190.274 214.216 190.077 214.36 189.96 214.584C189.842 214.797 189.784 215.144 189.784 215.624V218.76C189.784 219.112 189.821 219.389 189.896 219.592C189.981 219.784 190.12 219.923 190.312 220.008C190.504 220.104 190.701 220.163 190.904 220.184C191.106 220.205 191.432 220.216 191.88 220.216ZM197.789 213.256H201.181C201.875 213.256 202.429 213.299 202.845 213.384C203.261 213.459 203.565 213.592 203.757 213.784C203.939 213.965 204.056 214.152 204.109 214.344C204.163 214.536 204.189 214.803 204.189 215.144V215.416C204.189 215.832 204.083 216.141 203.869 216.344C203.656 216.547 203.299 216.701 202.797 216.808V216.872C204.035 217.085 204.653 217.624 204.653 218.488V218.952C204.653 219.475 204.547 219.885 204.333 220.184C204.131 220.472 203.789 220.68 203.309 220.808C202.829 220.936 202.157 221 201.293 221H197.789V213.256ZM201.309 216.52C201.736 216.52 202.056 216.488 202.269 216.424C202.483 216.349 202.627 216.237 202.701 216.088C202.776 215.928 202.813 215.688 202.813 215.368V215.272C202.813 214.984 202.771 214.771 202.685 214.632C202.611 214.493 202.461 214.397 202.237 214.344C202.024 214.28 201.699 214.248 201.261 214.248H199.229V216.52H201.309ZM201.373 219.96C201.875 219.96 202.253 219.928 202.509 219.864C202.765 219.8 202.941 219.699 203.037 219.56C203.133 219.411 203.181 219.192 203.181 218.904V218.392C203.181 218.125 203.069 217.901 202.845 217.72C202.611 217.549 202.147 217.464 201.453 217.464H199.229V219.96H201.373ZM213.929 221.16C212.969 221.16 212.243 221.069 211.753 220.888C211.262 220.707 210.921 220.392 210.729 219.944C210.537 219.485 210.441 218.813 210.441 217.928V214.808C210.441 213.677 210.771 212.765 211.433 212.072C212.105 211.368 213.145 210.84 214.553 210.488C215.694 210.168 216.553 209.896 217.129 209.672V211.032C216.307 211.331 215.315 211.635 214.153 211.944C213.502 212.072 212.995 212.227 212.633 212.408C212.27 212.589 212.014 212.808 211.865 213.064C211.726 213.309 211.662 213.619 211.673 213.992V215C211.918 214.531 212.27 214.205 212.729 214.024C213.187 213.832 213.779 213.736 214.505 213.736C215.518 213.736 216.259 213.944 216.729 214.36C217.209 214.765 217.449 215.379 217.449 216.2V218.504C217.449 219.197 217.321 219.736 217.065 220.12C216.809 220.504 216.425 220.776 215.913 220.936C215.411 221.085 214.75 221.16 213.929 221.16ZM213.961 220.216C214.526 220.216 214.947 220.179 215.225 220.104C215.513 220.019 215.715 219.864 215.833 219.64C215.961 219.405 216.025 219.053 216.025 218.584V216.216C216.025 215.853 215.971 215.576 215.865 215.384C215.758 215.181 215.571 215.037 215.305 214.952C215.038 214.867 214.659 214.824 214.169 214.824C213.411 214.824 212.83 214.931 212.425 215.144C212.019 215.357 211.822 215.667 211.833 216.072L211.865 218.584C211.875 219.053 211.939 219.405 212.057 219.64C212.185 219.864 212.393 220.019 212.681 220.104C212.969 220.179 213.395 220.216 213.961 220.216ZM222.91 221.16C220.542 221.16 219.358 220.371 219.358 218.792V215.736C219.358 214.797 219.625 214.125 220.158 213.72C220.702 213.304 221.577 213.096 222.782 213.096C223.924 213.096 224.745 213.293 225.246 213.688C225.758 214.083 226.014 214.765 226.014 215.736V217.448H220.814V218.616C220.814 219.149 221.001 219.533 221.374 219.768C221.748 220.003 222.324 220.12 223.102 220.12C223.838 220.12 224.708 219.992 225.71 219.736V220.84C224.729 221.053 223.796 221.16 222.91 221.16ZM224.574 216.504V215.288C224.574 214.819 224.43 214.499 224.142 214.328C223.865 214.147 223.385 214.056 222.702 214.056C222.041 214.056 221.561 214.147 221.262 214.328C220.964 214.499 220.814 214.819 220.814 215.288V216.504H224.574ZM229.937 221.16C229.308 221.16 228.582 221.069 227.761 220.888V219.752C228.561 219.987 229.286 220.104 229.937 220.104C230.673 220.104 231.212 220.024 231.553 219.864C231.894 219.693 232.065 219.373 232.065 218.904V218.408C232.065 218.013 231.889 217.752 231.537 217.624C231.196 217.485 230.71 217.416 230.081 217.416H229.201V216.424H229.809C230.46 216.424 230.956 216.349 231.297 216.2C231.638 216.051 231.809 215.784 231.809 215.4V214.92C231.809 214.365 231.169 214.088 229.889 214.088C229.217 214.088 228.561 214.152 227.921 214.28V213.24C228.529 213.144 229.18 213.096 229.873 213.096C230.694 213.096 231.334 213.139 231.793 213.224C232.252 213.309 232.609 213.469 232.865 213.704C233.132 213.939 233.265 214.317 233.265 214.84V215.464C233.265 215.805 233.137 216.088 232.881 216.312C232.636 216.525 232.316 216.664 231.921 216.728V216.792C233.02 216.963 233.569 217.437 233.569 218.216V219.016C233.569 219.379 233.494 219.704 233.345 219.992C233.206 220.269 233.02 220.483 232.785 220.632C232.465 220.835 232.06 220.973 231.569 221.048C231.089 221.123 230.545 221.16 229.937 221.16ZM30.344 232.256H36.888V240H35.448V233.312H31.784V240H30.344V232.256ZM42.7624 240.16C42.0797 240.16 41.5677 240.133 41.2264 240.08C40.885 240.037 40.5437 239.936 40.2024 239.776C39.8504 239.616 39.5944 239.36 39.4344 239.008C39.2744 238.645 39.1944 238.16 39.1944 237.552V234.864C39.1944 234.384 39.253 233.963 39.3704 233.6C39.4877 233.237 39.6424 232.955 39.8344 232.752C39.9944 232.571 40.2344 232.432 40.5544 232.336C40.885 232.229 41.221 232.16 41.5624 232.128C41.9464 232.107 42.3464 232.096 42.7624 232.096C43.317 232.096 43.733 232.112 44.0104 232.144C44.2984 232.165 44.6024 232.219 44.9224 232.304C45.253 232.4 45.509 232.544 45.6904 232.736C45.8717 232.928 46.0264 233.205 46.1544 233.568C46.2717 233.941 46.3304 234.373 46.3304 234.864V237.552C46.3304 238.459 46.1224 239.12 45.7064 239.536C45.5357 239.707 45.2904 239.84 44.9704 239.936C44.6504 240.032 44.3197 240.096 43.9784 240.128C43.573 240.149 43.1677 240.16 42.7624 240.16ZM42.7624 239.216C43.2104 239.216 43.5357 239.205 43.7384 239.184C43.941 239.163 44.1384 239.104 44.3304 239.008C44.5224 238.923 44.6557 238.784 44.7304 238.592C44.8157 238.389 44.8584 238.112 44.8584 237.76V234.624C44.8584 234.144 44.7997 233.797 44.6824 233.584C44.565 233.36 44.3624 233.216 44.0744 233.152C43.797 233.077 43.3597 233.04 42.7624 233.04C42.165 233.04 41.7224 233.077 41.4344 233.152C41.157 233.216 40.9597 233.36 40.8424 233.584C40.725 233.797 40.6664 234.144 40.6664 234.624V237.76C40.6664 238.112 40.7037 238.389 40.7784 238.592C40.8637 238.784 41.0024 238.923 41.1944 239.008C41.3864 239.104 41.5837 239.163 41.7864 239.184C41.989 239.205 42.3144 239.216 42.7624 239.216ZM55.9201 239.056V242.144H54.6881V240H48.7201V242.144H47.4881V239.056H47.9841C48.2188 239.056 48.4481 238.88 48.6721 238.528C48.8961 238.165 49.0828 237.589 49.2321 236.8C49.3815 236 49.4561 234.987 49.4561 233.76V232.256H54.8321V239.056H55.9201ZM53.3921 239.056V233.2H50.7201V234.32C50.7201 235.429 50.6455 236.384 50.4961 237.184C50.3575 237.973 50.0961 238.597 49.7121 239.056H53.3921ZM59.3823 240.16C58.7529 240.16 58.0276 240.069 57.2063 239.888V238.752C58.0063 238.987 58.7316 239.104 59.3823 239.104C60.1183 239.104 60.6569 239.024 60.9983 238.864C61.3396 238.693 61.5103 238.373 61.5103 237.904V237.408C61.5103 237.013 61.3343 236.752 60.9823 236.624C60.6409 236.485 60.1556 236.416 59.5263 236.416H58.6463V235.424H59.2543C59.9049 235.424 60.4009 235.349 60.7423 235.2C61.0836 235.051 61.2543 234.784 61.2543 234.4V233.92C61.2543 233.365 60.6143 233.088 59.3343 233.088C58.6623 233.088 58.0063 233.152 57.3663 233.28V232.24C57.9743 232.144 58.6249 232.096 59.3183 232.096C60.1396 232.096 60.7796 232.139 61.2383 232.224C61.6969 232.309 62.0543 232.469 62.3103 232.704C62.5769 232.939 62.7103 233.317 62.7103 233.84V234.464C62.7103 234.805 62.5823 235.088 62.3263 235.312C62.0809 235.525 61.7609 235.664 61.3663 235.728V235.792C62.4649 235.963 63.0143 236.437 63.0143 237.216V238.016C63.0143 238.379 62.9396 238.704 62.7903 238.992C62.6516 239.269 62.4649 239.483 62.2303 239.632C61.9103 239.835 61.5049 239.973 61.0143 240.048C60.5343 240.123 59.9903 240.16 59.3823 240.16ZM67.6008 240.16C66.8648 240.16 66.2941 240.091 65.8888 239.952C65.4941 239.813 65.2061 239.568 65.0247 239.216C64.8541 238.864 64.7688 238.357 64.7688 237.696C64.7688 237.109 64.8488 236.656 65.0088 236.336C65.1794 236.005 65.4621 235.771 65.8568 235.632C66.2621 235.493 66.8328 235.424 67.5688 235.424H69.8888V234.192C69.8888 233.904 69.8301 233.685 69.7128 233.536C69.6061 233.376 69.4194 233.264 69.1528 233.2C68.8968 233.136 68.5181 233.104 68.0168 233.104C67.2168 233.104 66.3314 233.168 65.3608 233.296V232.24C66.4168 232.144 67.3714 232.096 68.2248 232.096C69.1208 232.096 69.7821 232.165 70.2088 232.304C70.6354 232.432 70.9288 232.661 71.0888 232.992C71.2488 233.323 71.3288 233.835 71.3288 234.528V240H69.9368V239.264C69.8194 239.861 69.0408 240.16 67.6008 240.16ZM67.8408 239.216C68.3634 239.216 68.8061 239.179 69.1688 239.104C69.6488 239.008 69.8888 238.784 69.8888 238.432V236.32H67.6648C67.2061 236.32 66.8754 236.357 66.6728 236.432C66.4701 236.496 66.3368 236.624 66.2728 236.816C66.2088 237.008 66.1768 237.317 66.1768 237.744C66.1768 238.128 66.2141 238.427 66.2888 238.64C66.3634 238.843 66.4968 238.992 66.6888 239.088C66.8808 239.173 67.1688 239.216 67.5528 239.216H67.8408ZM73.8261 232.256H75.2661V233.088C75.3835 232.427 76.2635 232.096 77.9061 232.096C78.8875 232.096 79.6288 232.304 80.1301 232.72C80.6315 233.125 80.8821 233.648 80.8821 234.288V237.472C80.8821 237.931 80.8128 238.331 80.6741 238.672C80.5461 239.013 80.3755 239.28 80.1621 239.472C79.9701 239.653 79.7035 239.797 79.3621 239.904C79.0315 240.011 78.7008 240.08 78.3701 240.112C78.0715 240.144 77.7088 240.16 77.2821 240.16C76.8128 240.16 76.3808 240.107 75.9861 240C75.6021 239.883 75.3621 239.717 75.2661 239.504V243.168H73.8261V232.256ZM77.3141 239.184C77.8688 239.184 78.2901 239.147 78.5781 239.072C78.8768 238.987 79.0901 238.837 79.2181 238.624C79.3461 238.411 79.4101 238.085 79.4101 237.648V234.8C79.4101 234.32 79.3461 233.963 79.2181 233.728C79.0901 233.493 78.8768 233.339 78.5781 233.264C78.2901 233.179 77.8635 233.136 77.2981 233.136C76.7328 233.136 76.3008 233.179 76.0021 233.264C75.7141 233.339 75.5061 233.493 75.3781 233.728C75.2501 233.963 75.1861 234.32 75.1861 234.8V237.648C75.1861 238.075 75.2501 238.4 75.3781 238.624C75.5168 238.837 75.7355 238.987 76.0341 239.072C76.3328 239.147 76.7595 239.184 77.3141 239.184ZM89.3318 232.256V240H87.8918V237.216H86.1958L84.2278 240H82.3238L84.6918 236.944C84.0838 236.848 83.6411 236.651 83.3638 236.352C83.0971 236.043 82.9638 235.621 82.9638 235.088V234.256C82.9638 233.701 83.0384 233.285 83.1878 233.008C83.3478 232.731 83.6144 232.539 83.9878 232.432C84.3611 232.315 84.9158 232.256 85.6518 232.256H89.3318ZM87.8918 233.248H85.7958C85.4011 233.248 85.1078 233.28 84.9158 233.344C84.7238 233.408 84.5904 233.52 84.5158 233.68C84.4518 233.84 84.4198 234.075 84.4198 234.384V234.928C84.4198 235.344 84.5158 235.664 84.7078 235.888C84.9104 236.112 85.2144 236.224 85.6198 236.224H87.8918V233.248ZM99.1701 239.056V242.144H97.9381V240H91.9701V242.144H90.7381V239.056H91.2341C91.4688 239.056 91.6981 238.88 91.9221 238.528C92.1461 238.165 92.3328 237.589 92.4821 236.8C92.6315 236 92.7061 234.987 92.7061 233.76V232.256H98.0821V239.056H99.1701ZM96.6421 239.056V233.2H93.9701V234.32C93.9701 235.429 93.8955 236.384 93.7461 237.184C93.6075 237.973 93.3461 238.597 92.9621 239.056H96.6421ZM100.888 232.256H102.328V235.6C102.488 235.6 102.616 235.568 102.712 235.504C102.819 235.429 102.947 235.317 103.096 235.168L105.784 232.256H107.544L104.024 235.92C104.163 235.952 104.36 236.096 104.616 236.352C104.883 236.608 105.272 237.024 105.784 237.6L107.944 240H106.168L104.056 237.6C103.768 237.269 103.486 237.008 103.208 236.816C102.995 236.677 102.846 236.597 102.76 236.576C102.675 236.544 102.59 236.528 102.504 236.528C102.419 236.528 102.36 236.528 102.328 236.528V240H100.888V232.256ZM115.848 232.256V240H114.408V234.288L110.376 240H108.936V232.256H110.376V238.16L114.488 232.256H115.848ZM118.454 238.272H120.15L118.646 241.792H117.718L118.454 238.272ZM131.355 236.512C131.216 237.248 130.368 237.616 128.811 237.616C127.819 237.616 127.12 237.44 126.715 237.088C126.32 236.725 126.123 236.16 126.123 235.392V232.256H127.563V235.296C127.563 235.787 127.691 236.123 127.947 236.304C128.203 236.485 128.63 236.576 129.227 236.576C129.814 236.576 130.256 236.539 130.555 236.464C130.864 236.379 131.072 236.245 131.179 236.064C131.296 235.883 131.355 235.627 131.355 235.296V232.256H132.795V240H131.355V236.512ZM137.247 233.312H134.527V232.256H141.391V233.312H138.687V240H137.247V233.312ZM146.403 240.16C145.72 240.16 145.208 240.133 144.867 240.08C144.526 240.037 144.184 239.936 143.843 239.776C143.491 239.616 143.235 239.36 143.075 239.008C142.915 238.645 142.835 238.16 142.835 237.552V234.864C142.835 234.384 142.894 233.963 143.011 233.6C143.128 233.237 143.283 232.955 143.475 232.752C143.635 232.571 143.875 232.432 144.195 232.336C144.526 232.229 144.862 232.16 145.203 232.128C145.587 232.107 145.987 232.096 146.403 232.096C146.958 232.096 147.374 232.112 147.651 232.144C147.939 232.165 148.243 232.219 148.563 232.304C148.894 232.4 149.15 232.544 149.331 232.736C149.512 232.928 149.667 233.205 149.795 233.568C149.912 233.941 149.971 234.373 149.971 234.864V237.552C149.971 238.459 149.763 239.12 149.347 239.536C149.176 239.707 148.931 239.84 148.611 239.936C148.291 240.032 147.96 240.096 147.619 240.128C147.214 240.149 146.808 240.16 146.403 240.16ZM146.403 239.216C146.851 239.216 147.176 239.205 147.379 239.184C147.582 239.163 147.779 239.104 147.971 239.008C148.163 238.923 148.296 238.784 148.371 238.592C148.456 238.389 148.499 238.112 148.499 237.76V234.624C148.499 234.144 148.44 233.797 148.323 233.584C148.206 233.36 148.003 233.216 147.715 233.152C147.438 233.077 147 233.04 146.403 233.04C145.806 233.04 145.363 233.077 145.075 233.152C144.798 233.216 144.6 233.36 144.483 233.584C144.366 233.797 144.307 234.144 144.307 234.624V237.76C144.307 238.112 144.344 238.389 144.419 238.592C144.504 238.784 144.643 238.923 144.835 239.008C145.027 239.104 145.224 239.163 145.427 239.184C145.63 239.205 145.955 239.216 146.403 239.216ZM155.593 240.16C154.633 240.16 153.907 240.069 153.417 239.888C152.926 239.707 152.585 239.392 152.393 238.944C152.201 238.485 152.105 237.813 152.105 236.928V233.808C152.105 232.677 152.435 231.765 153.097 231.072C153.769 230.368 154.809 229.84 156.217 229.488C157.358 229.168 158.217 228.896 158.793 228.672V230.032C157.971 230.331 156.979 230.635 155.817 230.944C155.166 231.072 154.659 231.227 154.297 231.408C153.934 231.589 153.678 231.808 153.529 232.064C153.39 232.309 153.326 232.619 153.337 232.992V234C153.582 233.531 153.934 233.205 154.393 233.024C154.851 232.832 155.443 232.736 156.169 232.736C157.182 232.736 157.923 232.944 158.393 233.36C158.873 233.765 159.113 234.379 159.113 235.2V237.504C159.113 238.197 158.985 238.736 158.729 239.12C158.473 239.504 158.089 239.776 157.577 239.936C157.075 240.085 156.414 240.16 155.593 240.16ZM155.625 239.216C156.19 239.216 156.611 239.179 156.889 239.104C157.177 239.019 157.379 238.864 157.497 238.64C157.625 238.405 157.689 238.053 157.689 237.584V235.216C157.689 234.853 157.635 234.576 157.529 234.384C157.422 234.181 157.235 234.037 156.969 233.952C156.702 233.867 156.323 233.824 155.833 233.824C155.075 233.824 154.494 233.931 154.089 234.144C153.683 234.357 153.486 234.667 153.497 235.072L153.529 237.584C153.539 238.053 153.603 238.405 153.721 238.64C153.849 238.864 154.057 239.019 154.345 239.104C154.633 239.179 155.059 239.216 155.625 239.216ZM161.311 232.256H162.783V235.056H164.286C164.948 235.056 165.471 235.104 165.855 235.2C166.249 235.296 166.537 235.467 166.719 235.712C166.9 235.947 166.991 236.283 166.991 236.72V238.32C166.991 239.44 166.047 240 164.159 240H161.311V232.256ZM168.223 232.256H169.663V240H168.223V232.256ZM164.062 239.072C164.372 239.072 164.692 239.029 165.023 238.944C165.396 238.848 165.583 238.576 165.583 238.128V237.152C165.583 236.843 165.54 236.608 165.455 236.448C165.38 236.288 165.236 236.176 165.023 236.112C164.82 236.048 164.511 236.016 164.095 236.016H162.767V239.072H164.062ZM175.938 232.256H179.33C180.023 232.256 180.578 232.299 180.994 232.384C181.41 232.459 181.714 232.592 181.906 232.784C182.087 232.965 182.204 233.152 182.258 233.344C182.311 233.536 182.338 233.803 182.338 234.144V234.416C182.338 234.832 182.231 235.141 182.018 235.344C181.804 235.547 181.447 235.701 180.946 235.808V235.872C182.183 236.085 182.802 236.624 182.802 237.488V237.952C182.802 238.475 182.695 238.885 182.482 239.184C182.279 239.472 181.938 239.68 181.458 239.808C180.978 239.936 180.306 240 179.442 240H175.938V232.256ZM179.458 235.52C179.884 235.52 180.204 235.488 180.418 235.424C180.631 235.349 180.775 235.237 180.85 235.088C180.924 234.928 180.962 234.688 180.962 234.368V234.272C180.962 233.984 180.919 233.771 180.834 233.632C180.759 233.493 180.61 233.397 180.386 233.344C180.172 233.28 179.847 233.248 179.41 233.248H177.378V235.52H179.458ZM179.522 238.96C180.023 238.96 180.402 238.928 180.658 238.864C180.914 238.8 181.09 238.699 181.186 238.56C181.282 238.411 181.33 238.192 181.33 237.904V237.392C181.33 237.125 181.218 236.901 180.994 236.72C180.759 236.549 180.295 236.464 179.602 236.464H177.378V238.96H179.522ZM185.014 232.256H186.486V235.056H187.99C188.651 235.056 189.174 235.104 189.558 235.2C189.952 235.296 190.24 235.467 190.422 235.712C190.603 235.947 190.694 236.283 190.694 236.72V238.32C190.694 239.44 189.75 240 187.862 240H185.014V232.256ZM191.926 232.256H193.366V240H191.926V232.256ZM187.766 239.072C188.075 239.072 188.395 239.029 188.726 238.944C189.099 238.848 189.286 238.576 189.286 238.128V237.152C189.286 236.843 189.243 236.608 189.158 236.448C189.083 236.288 188.939 236.176 188.726 236.112C188.523 236.048 188.214 236.016 187.798 236.016H186.47V239.072H187.766ZM203.328 232.256H205.648L208 238.56H208.064L210.256 232.256H212.496V240H211.168V233.568H211.088L208.704 240H207.248L204.768 233.568H204.688V240H203.328V232.256ZM218.372 240.16C217.689 240.16 217.177 240.133 216.836 240.08C216.494 240.037 216.153 239.936 215.812 239.776C215.46 239.616 215.204 239.36 215.044 239.008C214.884 238.645 214.804 238.16 214.804 237.552V234.864C214.804 234.384 214.862 233.963 214.98 233.6C215.097 233.237 215.252 232.955 215.444 232.752C215.604 232.571 215.844 232.432 216.164 232.336C216.494 232.229 216.83 232.16 217.172 232.128C217.556 232.107 217.956 232.096 218.372 232.096C218.926 232.096 219.342 232.112 219.62 232.144C219.908 232.165 220.212 232.219 220.532 232.304C220.862 232.4 221.118 232.544 221.3 232.736C221.481 232.928 221.636 233.205 221.764 233.568C221.881 233.941 221.94 234.373 221.94 234.864V237.552C221.94 238.459 221.732 239.12 221.316 239.536C221.145 239.707 220.9 239.84 220.58 239.936C220.26 240.032 219.929 240.096 219.588 240.128C219.182 240.149 218.777 240.16 218.372 240.16ZM218.372 239.216C218.82 239.216 219.145 239.205 219.348 239.184C219.55 239.163 219.748 239.104 219.94 239.008C220.132 238.923 220.265 238.784 220.34 238.592C220.425 238.389 220.468 238.112 220.468 237.76V234.624C220.468 234.144 220.409 233.797 220.292 233.584C220.174 233.36 219.972 233.216 219.684 233.152C219.406 233.077 218.969 233.04 218.372 233.04C217.774 233.04 217.332 233.077 217.044 233.152C216.766 233.216 216.569 233.36 216.452 233.584C216.334 233.797 216.276 234.144 216.276 234.624V237.76C216.276 238.112 216.313 238.389 216.388 238.592C216.473 238.784 216.612 238.923 216.804 239.008C216.996 239.104 217.193 239.163 217.396 239.184C217.598 239.205 217.924 239.216 218.372 239.216ZM224.282 232.256H229.338V233.312H225.722V240H224.282V232.256ZM230.6 240.016C230.44 240.016 230.286 240 230.136 239.968V238.736C230.286 238.768 230.435 238.784 230.584 238.784C231.043 238.784 231.406 238.453 231.672 237.792C231.95 237.12 232.088 235.883 232.088 234.08V232.256H237.352V240H235.912V233.2H233.368V234.32C233.368 236.08 233.16 237.472 232.744 238.496C232.328 239.509 231.614 240.016 230.6 240.016ZM246.754 232.256V240H245.314V234.288L241.282 240H239.842V232.256H241.282V238.16L245.394 232.256H246.754ZM19.8753 251.256H26.4193V259H24.9793V252.312H21.3153V259H19.8753V251.256ZM32.2936 259.16C31.611 259.16 31.099 259.133 30.7576 259.08C30.4163 259.037 30.075 258.936 29.7336 258.776C29.3816 258.616 29.1256 258.36 28.9656 258.008C28.8056 257.645 28.7256 257.16 28.7256 256.552V253.864C28.7256 253.384 28.7843 252.963 28.9016 252.6C29.019 252.237 29.1736 251.955 29.3656 251.752C29.5256 251.571 29.7656 251.432 30.0856 251.336C30.4163 251.229 30.7523 251.16 31.0936 251.128C31.4776 251.107 31.8776 251.096 32.2936 251.096C32.8483 251.096 33.2643 251.112 33.5416 251.144C33.8296 251.165 34.1336 251.219 34.4536 251.304C34.7843 251.4 35.0403 251.544 35.2216 251.736C35.403 251.928 35.5576 252.205 35.6856 252.568C35.803 252.941 35.8616 253.373 35.8616 253.864V256.552C35.8616 257.459 35.6536 258.12 35.2376 258.536C35.067 258.707 34.8216 258.84 34.5016 258.936C34.1816 259.032 33.851 259.096 33.5096 259.128C33.1043 259.149 32.699 259.16 32.2936 259.16ZM32.2936 258.216C32.7416 258.216 33.067 258.205 33.2696 258.184C33.4723 258.163 33.6696 258.104 33.8616 258.008C34.0536 257.923 34.187 257.784 34.2616 257.592C34.347 257.389 34.3896 257.112 34.3896 256.76V253.624C34.3896 253.144 34.331 252.797 34.2136 252.584C34.0963 252.36 33.8936 252.216 33.6056 252.152C33.3283 252.077 32.891 252.04 32.2936 252.04C31.6963 252.04 31.2536 252.077 30.9656 252.152C30.6883 252.216 30.491 252.36 30.3736 252.584C30.2563 252.797 30.1976 253.144 30.1976 253.624V256.76C30.1976 257.112 30.235 257.389 30.3096 257.592C30.395 257.784 30.5336 257.923 30.7256 258.008C30.9176 258.104 31.115 258.163 31.3176 258.184C31.5203 258.205 31.8456 258.216 32.2936 258.216ZM37.8034 259.016C37.6434 259.016 37.4887 259 37.3394 258.968V257.736C37.4887 257.768 37.638 257.784 37.7874 257.784C38.246 257.784 38.6087 257.453 38.8754 256.792C39.1527 256.12 39.2914 254.883 39.2914 253.08V251.256H44.5554V259H43.1154V252.2H40.5714V253.32C40.5714 255.08 40.3634 256.472 39.9474 257.496C39.5314 258.509 38.8167 259.016 37.8034 259.016ZM47.0449 251.256H48.4849V254.056H50.4689C51.1302 254.056 51.6529 254.104 52.0369 254.2C52.4315 254.296 52.7195 254.467 52.9009 254.712C53.0822 254.947 53.1729 255.283 53.1729 255.72V257.32C53.1729 258.44 52.2289 259 50.3409 259H47.0449V251.256ZM50.2449 258.072C50.5542 258.072 50.8742 258.029 51.2049 257.944C51.5782 257.848 51.7649 257.576 51.7649 257.128V256.152C51.7649 255.843 51.7222 255.608 51.6369 255.448C51.5622 255.288 51.4182 255.176 51.2049 255.112C51.0022 255.048 50.6929 255.016 50.2769 255.016H48.4689V258.072H50.2449ZM56.6323 259.16C56.0029 259.16 55.2776 259.069 54.4563 258.888V257.752C55.2563 257.987 55.9816 258.104 56.6323 258.104C57.3683 258.104 57.9069 258.024 58.2483 257.864C58.5896 257.693 58.7603 257.373 58.7603 256.904V256.408C58.7603 256.013 58.5843 255.752 58.2323 255.624C57.8909 255.485 57.4056 255.416 56.7763 255.416H55.8963V254.424H56.5043C57.1549 254.424 57.6509 254.349 57.9923 254.2C58.3336 254.051 58.5043 253.784 58.5043 253.4V252.92C58.5043 252.365 57.8643 252.088 56.5843 252.088C55.9123 252.088 55.2563 252.152 54.6163 252.28V251.24C55.2243 251.144 55.8749 251.096 56.5683 251.096C57.3896 251.096 58.0296 251.139 58.4883 251.224C58.9469 251.309 59.3043 251.469 59.5603 251.704C59.8269 251.939 59.9603 252.317 59.9603 252.84V253.464C59.9603 253.805 59.8323 254.088 59.5763 254.312C59.3309 254.525 59.0109 254.664 58.6163 254.728V254.792C59.7149 254.963 60.2643 255.437 60.2643 256.216V257.016C60.2643 257.379 60.1896 257.704 60.0403 257.992C59.9016 258.269 59.7149 258.483 59.4803 258.632C59.1603 258.835 58.7549 258.973 58.2643 259.048C57.7843 259.123 57.2403 259.16 56.6323 259.16ZM65.7468 259.16C65.0641 259.16 64.5521 259.133 64.2108 259.08C63.8694 259.037 63.5281 258.936 63.1868 258.776C62.8348 258.616 62.5788 258.36 62.4188 258.008C62.2588 257.645 62.1788 257.16 62.1788 256.552V253.864C62.1788 253.384 62.2374 252.963 62.3548 252.6C62.4721 252.237 62.6268 251.955 62.8188 251.752C62.9788 251.571 63.2188 251.432 63.5388 251.336C63.8694 251.229 64.2054 251.16 64.5468 251.128C64.9308 251.107 65.3308 251.096 65.7468 251.096C66.3014 251.096 66.7174 251.112 66.9948 251.144C67.2828 251.165 67.5868 251.219 67.9068 251.304C68.2374 251.4 68.4934 251.544 68.6748 251.736C68.8561 251.928 69.0108 252.205 69.1388 252.568C69.2561 252.941 69.3148 253.373 69.3148 253.864V256.552C69.3148 257.459 69.1068 258.12 68.6908 258.536C68.5201 258.707 68.2748 258.84 67.9548 258.936C67.6348 259.032 67.3041 259.096 66.9628 259.128C66.5574 259.149 66.1521 259.16 65.7468 259.16ZM65.7468 258.216C66.1948 258.216 66.5201 258.205 66.7228 258.184C66.9254 258.163 67.1228 258.104 67.3148 258.008C67.5068 257.923 67.6401 257.784 67.7148 257.592C67.8001 257.389 67.8428 257.112 67.8428 256.76V253.624C67.8428 253.144 67.7841 252.797 67.6668 252.584C67.5494 252.36 67.3468 252.216 67.0588 252.152C66.7814 252.077 66.3441 252.04 65.7468 252.04C65.1494 252.04 64.7068 252.077 64.4188 252.152C64.1414 252.216 63.9441 252.36 63.8268 252.584C63.7094 252.797 63.6508 253.144 63.6508 253.624V256.76C63.6508 257.112 63.6881 257.389 63.7628 257.592C63.8481 257.784 63.9868 257.923 64.1788 258.008C64.3708 258.104 64.5681 258.163 64.7708 258.184C64.9734 258.205 65.2988 258.216 65.7468 258.216ZM71.6565 251.256H75.0485C75.7418 251.256 76.2965 251.299 76.7125 251.384C77.1285 251.459 77.4325 251.592 77.6245 251.784C77.8058 251.965 77.9232 252.152 77.9765 252.344C78.0298 252.536 78.0565 252.803 78.0565 253.144V253.416C78.0565 253.832 77.9498 254.141 77.7365 254.344C77.5232 254.547 77.1658 254.701 76.6645 254.808V254.872C77.9018 255.085 78.5205 255.624 78.5205 256.488V256.952C78.5205 257.475 78.4138 257.885 78.2005 258.184C77.9978 258.472 77.6565 258.68 77.1765 258.808C76.6965 258.936 76.0245 259 75.1605 259H71.6565V251.256ZM75.1765 254.52C75.6032 254.52 75.9232 254.488 76.1365 254.424C76.3498 254.349 76.4938 254.237 76.5685 254.088C76.6432 253.928 76.6805 253.688 76.6805 253.368V253.272C76.6805 252.984 76.6378 252.771 76.5525 252.632C76.4778 252.493 76.3285 252.397 76.1045 252.344C75.8912 252.28 75.5658 252.248 75.1285 252.248H73.0965V254.52H75.1765ZM75.2405 257.96C75.7418 257.96 76.1205 257.928 76.3765 257.864C76.6325 257.8 76.8085 257.699 76.9045 257.56C77.0005 257.411 77.0485 257.192 77.0485 256.904V256.392C77.0485 256.125 76.9365 255.901 76.7125 255.72C76.4778 255.549 76.0138 255.464 75.3205 255.464H73.0965V257.96H75.2405ZM83.1164 259.16C82.3804 259.16 81.8097 259.091 81.4044 258.952C81.0097 258.813 80.7217 258.568 80.5404 258.216C80.3697 257.864 80.2844 257.357 80.2844 256.696C80.2844 256.109 80.3644 255.656 80.5244 255.336C80.695 255.005 80.9777 254.771 81.3724 254.632C81.7777 254.493 82.3484 254.424 83.0844 254.424H85.4044V253.192C85.4044 252.904 85.3457 252.685 85.2284 252.536C85.1217 252.376 84.935 252.264 84.6684 252.2C84.4124 252.136 84.0337 252.104 83.5324 252.104C82.7324 252.104 81.847 252.168 80.8764 252.296V251.24C81.9324 251.144 82.887 251.096 83.7404 251.096C84.6364 251.096 85.2977 251.165 85.7244 251.304C86.151 251.432 86.4444 251.661 86.6044 251.992C86.7644 252.323 86.8444 252.835 86.8444 253.528V259H85.4524V258.264C85.335 258.861 84.5564 259.16 83.1164 259.16ZM83.3564 258.216C83.879 258.216 84.3217 258.179 84.6844 258.104C85.1644 258.008 85.4044 257.784 85.4044 257.432V255.32H83.1804C82.7217 255.32 82.391 255.357 82.1884 255.432C81.9857 255.496 81.8524 255.624 81.7884 255.816C81.7244 256.008 81.6924 256.317 81.6924 256.744C81.6924 257.128 81.7297 257.427 81.8044 257.64C81.879 257.843 82.0124 257.992 82.2044 258.088C82.3964 258.173 82.6844 258.216 83.0684 258.216H83.3564ZM91.2938 252.312H88.5738V251.256H95.4378V252.312H92.7338V259H91.2938V252.312ZM97.1699 251.256H98.6099V254.056H100.594C101.255 254.056 101.778 254.104 102.162 254.2C102.557 254.296 102.845 254.467 103.026 254.712C103.207 254.947 103.298 255.283 103.298 255.72V257.32C103.298 258.44 102.354 259 100.466 259H97.1699V251.256ZM100.37 258.072C100.679 258.072 100.999 258.029 101.33 257.944C101.703 257.848 101.89 257.576 101.89 257.128V256.152C101.89 255.843 101.847 255.608 101.762 255.448C101.687 255.288 101.543 255.176 101.33 255.112C101.127 255.048 100.818 255.016 100.402 255.016H98.5939V258.072H100.37ZM108.149 259.16C107.616 259.16 107.227 259.149 106.981 259.128C106.747 259.107 106.475 259.053 106.165 258.968C105.835 258.883 105.579 258.755 105.397 258.584C105.216 258.413 105.061 258.163 104.933 257.832C104.805 257.512 104.741 257.112 104.741 256.632V253.784C104.741 252.92 104.907 252.301 105.237 251.928C105.419 251.715 105.6 251.555 105.781 251.448C105.973 251.331 106.219 251.251 106.517 251.208C106.816 251.165 107.083 251.139 107.317 251.128C107.552 251.107 107.883 251.096 108.309 251.096C109.045 251.096 109.781 251.176 110.517 251.336V252.392C109.664 252.179 108.869 252.072 108.133 252.072C107.579 252.072 107.168 252.115 106.901 252.2C106.645 252.275 106.464 252.419 106.357 252.632C106.261 252.835 106.213 253.149 106.213 253.576V256.744C106.213 257.139 106.267 257.432 106.373 257.624C106.491 257.816 106.693 257.955 106.981 258.04C107.28 258.115 107.717 258.152 108.293 258.152C109.072 258.152 109.851 258.051 110.629 257.848V258.936C109.904 259.085 109.077 259.16 108.149 259.16ZM118.691 251.256V259H117.251V256.216H115.555L113.587 259H111.683L114.051 255.944C113.443 255.848 113 255.651 112.723 255.352C112.456 255.043 112.323 254.621 112.323 254.088V253.256C112.323 252.701 112.398 252.285 112.547 252.008C112.707 251.731 112.974 251.539 113.347 251.432C113.72 251.315 114.275 251.256 115.011 251.256H118.691ZM117.251 252.248H115.155C114.76 252.248 114.467 252.28 114.275 252.344C114.083 252.408 113.95 252.52 113.875 252.68C113.811 252.84 113.779 253.075 113.779 253.384V253.928C113.779 254.344 113.875 254.664 114.067 254.888C114.27 255.112 114.574 255.224 114.979 255.224H117.251V252.248ZM131.785 251.256V259H130.345V253.288L126.313 259H124.873V251.256H126.313V257.16L130.425 251.256H131.785ZM134.375 251.256H136.695L139.047 257.56H139.111L141.303 251.256H143.543V259H142.215V252.568H142.135L139.751 259H138.295L135.815 252.568H135.735V259H134.375V251.256ZM153.051 251.256V259H151.611V253.288L147.579 259H146.139V251.256H147.579V257.16L151.691 251.256H153.051ZM159.216 251.256H160.656V254.6C160.816 254.6 160.944 254.568 161.04 254.504C161.147 254.429 161.275 254.317 161.424 254.168L164.112 251.256H165.872L162.352 254.92C162.491 254.952 162.688 255.096 162.944 255.352C163.211 255.608 163.6 256.024 164.112 256.6L166.272 259H164.496L162.384 256.6C162.096 256.269 161.814 256.008 161.536 255.816C161.323 255.677 161.174 255.597 161.088 255.576C161.003 255.544 160.918 255.528 160.832 255.528C160.747 255.528 160.688 255.528 160.656 255.528V259H159.216V251.256ZM169.648 259.16C168.912 259.16 168.341 259.091 167.936 258.952C167.541 258.813 167.253 258.568 167.072 258.216C166.901 257.864 166.816 257.357 166.816 256.696C166.816 256.109 166.896 255.656 167.056 255.336C167.226 255.005 167.509 254.771 167.904 254.632C168.309 254.493 168.88 254.424 169.616 254.424H171.936V253.192C171.936 252.904 171.877 252.685 171.76 252.536C171.653 252.376 171.466 252.264 171.2 252.2C170.944 252.136 170.565 252.104 170.064 252.104C169.264 252.104 168.378 252.168 167.408 252.296V251.24C168.464 251.144 169.418 251.096 170.272 251.096C171.168 251.096 171.829 251.165 172.256 251.304C172.682 251.432 172.976 251.661 173.136 251.992C173.296 252.323 173.376 252.835 173.376 253.528V259H171.984V258.264C171.866 258.861 171.088 259.16 169.648 259.16ZM169.888 258.216C170.41 258.216 170.853 258.179 171.216 258.104C171.696 258.008 171.936 257.784 171.936 257.432V255.32H169.712C169.253 255.32 168.922 255.357 168.72 255.432C168.517 255.496 168.384 255.624 168.32 255.816C168.256 256.008 168.224 256.317 168.224 256.744C168.224 257.128 168.261 257.427 168.336 257.64C168.41 257.843 168.544 257.992 168.736 258.088C168.928 258.173 169.216 258.216 169.6 258.216H169.888ZM176.529 256.6C177.041 256.024 177.425 255.608 177.681 255.352C177.948 255.096 178.15 254.952 178.289 254.92L174.769 251.256H176.529L178.897 254.168C179.121 254.456 179.484 254.6 179.985 254.6V251.256H181.313V254.6C181.814 254.6 182.177 254.456 182.401 254.168L184.769 251.256H186.529L183.009 254.92C183.148 254.952 183.345 255.096 183.601 255.352C183.868 255.608 184.257 256.024 184.769 256.6L186.929 259H185.153L183.041 256.6C182.753 256.269 182.47 256.008 182.193 255.816C181.99 255.677 181.846 255.592 181.761 255.56C181.676 255.528 181.59 255.517 181.505 255.528C181.42 255.528 181.356 255.528 181.313 255.528V259H179.985V255.528C179.942 255.528 179.873 255.528 179.777 255.528C179.681 255.517 179.585 255.533 179.489 255.576C179.393 255.619 179.265 255.699 179.105 255.816C178.828 256.008 178.545 256.269 178.257 256.6L176.145 259H174.369L176.529 256.6ZM195.264 258.056V261.144H194.032V259H188.064V261.144H186.832V258.056H187.328C187.563 258.056 187.792 257.88 188.016 257.528C188.24 257.165 188.427 256.589 188.576 255.8C188.725 255 188.8 253.987 188.8 252.76V251.256H194.176V258.056H195.264ZM192.736 258.056V252.2H190.064V253.32C190.064 254.429 189.989 255.384 189.84 256.184C189.701 256.973 189.44 257.597 189.056 258.056H192.736ZM196.998 251.256H198.47V254.056H199.974C200.635 254.056 201.158 254.104 201.542 254.2C201.937 254.296 202.225 254.467 202.406 254.712C202.587 254.947 202.678 255.283 202.678 255.72V257.32C202.678 258.44 201.734 259 199.846 259H196.998V251.256ZM203.91 251.256H205.35V259H203.91V251.256ZM199.75 258.072C200.059 258.072 200.379 258.029 200.71 257.944C201.083 257.848 201.27 257.576 201.27 257.128V256.152C201.27 255.843 201.227 255.608 201.142 255.448C201.067 255.288 200.923 255.176 200.71 255.112C200.507 255.048 200.198 255.016 199.782 255.016H198.454V258.072H199.75ZM214.754 251.256V259H213.314V253.288L209.282 259H207.842V251.256H209.282V257.16L213.394 251.256H214.754ZM211.298 250.152C210.583 250.152 210.018 249.971 209.602 249.608C209.186 249.235 208.962 248.739 208.93 248.12H210.114C210.188 248.952 210.583 249.368 211.298 249.368C212.002 249.368 212.396 248.952 212.482 248.12H213.666C213.644 248.728 213.42 249.219 212.994 249.592C212.578 249.965 212.012 250.152 211.298 250.152ZM228.28 258.056V261.144H227.048V259H221.08V261.144H219.848V258.056H220.344C220.578 258.056 220.808 257.88 221.032 257.528C221.256 257.165 221.442 256.589 221.592 255.8C221.741 255 221.816 253.987 221.816 252.76V251.256H227.192V258.056H228.28ZM225.752 258.056V252.2H223.08V253.32C223.08 254.429 223.005 255.384 222.856 256.184C222.717 256.973 222.456 257.597 222.072 258.056H225.752ZM233.278 259.16C230.91 259.16 229.726 258.371 229.726 256.792V253.736C229.726 252.797 229.992 252.125 230.526 251.72C231.07 251.304 231.944 251.096 233.15 251.096C234.291 251.096 235.112 251.293 235.614 251.688C236.126 252.083 236.382 252.765 236.382 253.736V255.448H231.182V256.616C231.182 257.149 231.368 257.533 231.742 257.768C232.115 258.003 232.691 258.12 233.47 258.12C234.206 258.12 235.075 257.992 236.078 257.736V258.84C235.096 259.053 234.163 259.16 233.278 259.16ZM234.942 254.504V253.288C234.942 252.819 234.798 252.499 234.51 252.328C234.232 252.147 233.752 252.056 233.07 252.056C232.408 252.056 231.928 252.147 231.63 252.328C231.331 252.499 231.182 252.819 231.182 253.288V254.504H234.942ZM238.576 251.256H240.016V254.472H243.824V251.256H245.264V259H243.824V255.528H240.016V259H238.576V251.256ZM247.764 251.256H249.204V254.056H251.188C251.849 254.056 252.372 254.104 252.756 254.2C253.15 254.296 253.438 254.467 253.62 254.712C253.801 254.947 253.892 255.283 253.892 255.72V257.32C253.892 258.44 252.948 259 251.06 259H247.764V251.256ZM250.964 258.072C251.273 258.072 251.593 258.029 251.924 257.944C252.297 257.848 252.484 257.576 252.484 257.128V256.152C252.484 255.843 252.441 255.608 252.356 255.448C252.281 255.288 252.137 255.176 251.924 255.112C251.721 255.048 251.412 255.016 250.996 255.016H249.188V258.072H250.964ZM255.495 257.272H257.351V259H255.495V257.272Z" fill="#666666"/>
</svg>
