<svg width="42.000000" height="42.000000" viewBox="0 0 42 42" fill="none" xmlns="http://www.w3.org/2000/svg" xmlns:xlink="http://www.w3.org/1999/xlink">
	<desc>
			Created with Pixso.
	</desc>
	<defs>
		<clipPath id="clip24_1166">
			<rect id="gear 1" width="42.000000" height="42.000000" fill="white" fill-opacity="0"/>
		</clipPath>
	</defs>
	<rect id="gear 1" width="42.000000" height="42.000000" fill="#FFFFFF" fill-opacity="0"/>
	<g clip-path="url(#clip24_1166)">
		<path id="Vector" d="M21 10.1111C14.9955 10.1111 10.1111 14.9955 10.1111 21C10.1111 27.0044 14.9955 31.8889 21 31.8889C27.0044 31.8889 31.8889 27.0044 31.8889 21C31.8889 14.9955 27.0044 10.1111 21 10.1111ZM21 30.3333C15.8534 30.3333 11.6666 26.1465 11.6666 21C11.6666 15.8534 15.8534 11.6666 21 11.6666C26.1465 11.6666 30.3333 15.8534 30.3333 21C30.3333 26.1465 26.1465 30.3333 21 30.3333Z" fill="#FFFFFF" fill-opacity="1.000000" fill-rule="nonzero"/>
		<path id="Vector" d="M39.8378 16.3334L38.2682 16.3334C37.8677 14.8462 37.2789 13.4229 36.5104 12.089L37.6196 10.9799C38.0279 10.5715 38.2527 10.0278 38.2527 9.45081C38.2527 8.87292 38.0279 8.32996 37.6196 7.9209L34.0783 4.37964C33.2617 3.56372 31.8376 3.56226 31.0193 4.37964L29.9102 5.48877C28.5756 4.72107 27.153 4.13232 25.6667 3.73181L25.6667 2.16223C25.6667 0.969849 24.6968 0 23.5044 0L18.4956 0C17.3032 0 16.3333 0.969849 16.3333 2.16223L16.3333 3.73181C14.847 4.13232 13.4244 4.72107 12.089 5.4895L10.9799 4.38049C10.1624 3.56226 8.73755 3.56372 7.92088 4.38049L4.37967 7.92163C3.97133 8.32996 3.74655 8.87366 3.74655 9.45154C3.74655 10.0287 3.97133 10.5715 4.37967 10.9807L5.48877 12.0897C4.72112 13.4229 4.13156 14.8462 3.73178 16.3334L2.16222 16.3334C0.969894 16.3334 0 17.3032 0 18.4956L0 23.5037C0 24.6968 0.969894 25.6666 2.16222 25.6666L3.73178 25.6666C4.13234 27.153 4.72112 28.5756 5.48956 29.911L4.38045 31.0201C3.97211 31.4285 3.74733 31.9722 3.74733 32.5492C3.74733 33.1271 3.97211 33.67 4.38045 34.0791L7.92166 37.6204C8.73833 38.4377 10.1632 38.4386 10.9807 37.6204L12.0898 36.5112C13.4252 37.2789 14.8478 37.8684 16.3341 38.269L16.3341 39.8385C16.3341 41.0309 17.304 42.0007 18.4963 42.0007L23.5044 42.0007C24.6968 42.0007 25.6667 41.0309 25.6667 39.8385L25.6667 38.269C27.153 37.8684 28.5756 37.2797 29.911 36.5112L31.0201 37.6204C31.8383 38.4386 33.2617 38.437 34.0791 37.6204L37.6203 34.0791C38.0287 33.6708 38.2534 33.1271 38.2534 32.5492C38.2534 31.9722 38.0287 31.4292 37.6203 31.0201L36.5112 29.911C37.2789 28.5756 37.8684 27.153 38.269 25.6666L39.8385 25.6666C41.0309 25.6666 42.0008 24.6968 42.0008 23.5044L42.0008 18.4956C42 17.3032 41.0301 16.3334 39.8378 16.3334ZM40.4444 23.5044C40.4444 23.8389 40.1722 24.1111 39.8378 24.1111L37.044 24.1111L36.904 24.7123C36.4988 26.4523 35.8159 28.1034 34.8717 29.6208L34.545 30.1451L36.5198 32.1199C36.757 32.3571 36.757 32.7421 36.5198 32.9785L32.9785 36.5198C32.7421 36.7562 32.3571 36.7578 32.1199 36.5198L30.1451 34.545L29.6209 34.8717C28.1042 35.8159 26.453 36.4995 24.7123 36.9041L24.1111 37.0439L24.1111 39.8378C24.1111 40.1722 23.8389 40.4445 23.5044 40.4445L18.4956 40.4445C18.1611 40.4445 17.8889 40.1722 17.8889 39.8378L17.8889 37.0439L17.2877 36.9041C15.5478 36.4988 13.8966 35.8159 12.3791 34.8717L11.8549 34.545L9.88011 36.5198C9.64211 36.7578 9.25711 36.7562 9.02144 36.5198L5.48022 32.9785C5.243 32.7413 5.243 32.3563 5.48022 32.1199L7.455 30.1451L7.12833 29.6208C6.18411 28.1042 5.50044 26.453 5.09599 24.7123L4.95599 24.1111L2.16222 24.1111C1.82777 24.1111 1.55556 23.8389 1.55556 23.5044L1.55556 18.4956C1.55556 18.1611 1.82777 17.8889 2.16222 17.8889L4.95599 17.8889L5.09599 17.2877C5.50122 15.547 6.18411 13.8958 7.12833 12.3792L7.455 11.8549L5.48022 9.88013C5.243 9.64294 5.243 9.25793 5.48022 9.02148L9.02144 5.48022C9.25789 5.24377 9.64288 5.24219 9.88011 5.48022L11.8549 7.45496L12.3791 7.1283C13.8958 6.18408 15.547 5.50049 17.2877 5.09595L17.8889 4.95605L17.8889 2.16223C17.8889 1.82776 18.1611 1.55554 18.4956 1.55554L23.5037 1.55554C23.8389 1.55554 24.1111 1.82776 24.1111 2.16223L24.1111 4.95605L24.7123 5.09595C26.4522 5.50122 28.1034 6.18408 29.6209 7.1283L30.1451 7.45496L32.1199 5.48022C32.3579 5.24219 32.7429 5.24377 32.9785 5.48022L36.5198 9.02148C36.757 9.25867 36.757 9.64368 36.5198 9.88013L34.545 11.8549L34.8717 12.3792C35.8159 13.895 36.4996 15.5463 36.904 17.2877L37.044 17.8889L39.8378 17.8889C40.1722 17.8889 40.4444 18.1611 40.4444 18.4956L40.4444 23.5044Z" fill="#FFFFFF" fill-opacity="1.000000" fill-rule="nonzero"/>
		<path id="Vector" d="M21 13.2222C16.7113 13.2222 13.2222 16.7113 13.2222 21C13.2222 25.2886 16.7113 28.7777 21 28.7777C25.2887 28.7777 28.7778 25.2886 28.7778 21C28.7778 16.7113 25.2887 13.2222 21 13.2222ZM21 27.2222C17.5692 27.2222 14.7778 24.4307 14.7778 21C14.7778 17.5692 17.5692 14.7777 21 14.7777C24.4308 14.7777 27.2222 17.5692 27.2222 21C27.2222 24.4307 24.4308 27.2222 21 27.2222Z" fill="#FFFFFF" fill-opacity="1.000000" fill-rule="nonzero"/>
	</g>
</svg>
