<svg width="32.000000" height="32.000000" viewBox="0 0 32 32" fill="none" xmlns="http://www.w3.org/2000/svg" xmlns:xlink="http://www.w3.org/1999/xlink">
	<desc>
			Created with Pixso.
	</desc>
	<defs>
		<clipPath id="clip32_440">
			<rect id="bluetooth 1" width="24.000000" height="24.000000" transform="translate(4.000000 4.000000)" fill="white" fill-opacity="0"/>
		</clipPath>
		<clipPath id="clip32_439">
			<rect id="grape" width="32.000000" height="32.000000" fill="white" fill-opacity="0"/>
		</clipPath>
	</defs>
	<rect id="grape" width="32.000000" height="32.000000" fill="#FFFFFF" fill-opacity="0"/>
	<g clip-path="url(#clip32_439)">
		<rect id="bluetooth 1" width="24.000000" height="24.000000" transform="translate(4.000000 4.000000)" fill="#FFFFFF" fill-opacity="0"/>
		<g clip-path="url(#clip32_440)">
			<path id="Vector" d="M22.2053 21.5211L17.1636 16L22.2053 10.4794C22.3638 10.3055 22.4445 10.0739 22.4276 9.83899C22.4107 9.60388 22.2985 9.38586 22.1163 9.23645L15.9874 4.19592C15.7305 3.9845 15.3753 3.94019 15.0746 4.08252C14.7739 4.22424 14.5823 4.52673 14.5823 4.85925L14.5823 13.1736L11.0639 9.32043C10.7443 8.97021 10.2004 8.94556 9.85016 9.2655C9.49994 9.58533 9.47528 10.1287 9.79517 10.4791L14.5823 15.7217L14.5823 16.2784L9.79523 21.5211C9.47504 21.8711 9.49969 22.4148 9.85022 22.7349C10.2007 23.0551 10.7441 23.0304 11.064 22.6796L14.5821 18.827L14.5821 27.1409C14.5821 27.473 14.774 27.7758 15.0744 27.9178C15.1912 27.9728 15.3167 28 15.4413 28C15.6369 28 15.8305 27.9336 15.9874 27.8047L22.1163 22.764C22.2985 22.6144 22.4107 22.3964 22.4276 22.1615C22.4445 21.9266 22.3643 21.6949 22.2053 21.5211ZM16.3007 6.67834L20.326 9.98853L16.3007 14.3967L16.3007 6.67834ZM16.3007 25.3217L16.3007 17.6035L20.326 22.0115L16.3007 25.3217Z" fill="#000000" fill-opacity="1.000000" fill-rule="nonzero"/>
		</g>
	</g>
</svg>
