<svg width="32.000000" height="32.000000" viewBox="0 0 32 32" fill="none" xmlns="http://www.w3.org/2000/svg" xmlns:xlink="http://www.w3.org/1999/xlink">
	<desc>
			Created with Pixso.
	</desc>
	<defs>
		<clipPath id="clip32_447">
			<rect id="road 1" width="24.000000" height="24.000000" transform="translate(4.000000 4.000000)" fill="white" fill-opacity="0"/>
		</clipPath>
		<clipPath id="clip32_446">
			<rect id="nut" width="32.000000" height="32.000000" fill="white" fill-opacity="0"/>
		</clipPath>
	</defs>
	<rect id="nut" width="32.000000" height="32.000000" fill="#FFFFFF" fill-opacity="0"/>
	<g clip-path="url(#clip32_446)">
		<rect id="road 1" width="24.000000" height="24.000000" transform="translate(4.000000 4.000000)" fill="#FFFFFF" fill-opacity="0"/>
		<g clip-path="url(#clip32_447)">
			<path id="Vector" d="M9.25 8.5C6.35498 8.5 4 10.855 4 13.75C4 16.444 8.21198 21.2155 8.69202 21.751C8.83447 21.9084 9.03699 22 9.25 22C9.46301 22 9.66553 21.9084 9.80798 21.751C10.288 21.2155 14.5 16.444 14.5 13.75C14.5 10.855 12.145 8.5 9.25 8.5ZM9.25 20.1055C7.612 18.163 5.5 15.181 5.5 13.75C5.5 11.683 7.18298 10 9.25 10C11.317 10 13 11.683 13 13.75C13 15.1794 10.888 18.163 9.25 20.1055Z" fill="#000000" fill-opacity="1.000000" fill-rule="nonzero"/>
			<path id="Vector" d="M9.25 11.5C8.00952 11.5 7 12.5095 7 13.75C7 14.9905 8.00952 16 9.25 16C10.4905 16 11.5 14.9905 11.5 13.75C11.5 12.5095 10.4905 11.5 9.25 11.5ZM9.25 14.5C8.836 14.5 8.5 14.1639 8.5 13.75C8.5 13.3361 8.836 13 9.25 13C9.664 13 10 13.3361 10 13.75C10 14.1639 9.664 14.5 9.25 14.5Z" fill="#000000" fill-opacity="1.000000" fill-rule="nonzero"/>
			<path id="Vector" d="M27.25 4L21.25 4C20.836 4 20.5 4.33606 20.5 4.75L20.5 9.25L20.5 12.25C20.5 12.6639 20.836 13 21.25 13C21.664 13 22 12.6639 22 12.25L22 10L27.25 10C27.664 10 28 9.66394 28 9.25L28 4.75C28 4.33606 27.664 4 27.25 4ZM26.5 8.5L22 8.5L22 5.5L26.5 5.5L26.5 8.5Z" fill="#000000" fill-opacity="1.000000" fill-rule="nonzero"/>
			<path id="Vector" d="M25 20.5L17.5 20.5C16.6735 20.5 16 19.8265 16 19C16 18.1735 16.6735 17.5 17.5 17.5L19.138 17.5C19.4485 18.3715 20.2735 19 21.25 19C22.4905 19 23.5 17.9905 23.5 16.75C23.5 15.5095 22.4905 14.5 21.25 14.5C20.2735 14.5 19.4485 15.1285 19.138 16L17.5 16C15.8455 16 14.5 17.3455 14.5 19C14.5 20.6545 15.8455 22 17.5 22L25 22C25.8265 22 26.5 22.6735 26.5 23.5C26.5 24.3265 25.8265 25 25 25L11.362 25C11.0515 24.1285 10.2265 23.5 9.25 23.5C8.00952 23.5 7 24.5095 7 25.75C7 26.9905 8.00952 28 9.25 28C10.2265 28 11.0515 27.3715 11.362 26.5L25 26.5C26.6545 26.5 28 25.1545 28 23.5C28 21.8455 26.6545 20.5 25 20.5ZM21.25 16C21.664 16 22 16.3361 22 16.75C22 17.1639 21.664 17.5 21.25 17.5C20.836 17.5 20.5 17.1639 20.5 16.75C20.5 16.3361 20.836 16 21.25 16ZM9.25 26.5C8.836 26.5 8.5 26.1639 8.5 25.75C8.5 25.3361 8.836 25 9.25 25C9.664 25 10 25.3361 10 25.75C10 26.1639 9.664 26.5 9.25 26.5Z" fill="#000000" fill-opacity="1.000000" fill-rule="nonzero"/>
		</g>
	</g>
</svg>
