<svg width="32.000000" height="32.000000" viewBox="0 0 32 32" fill="none" xmlns="http://www.w3.org/2000/svg" xmlns:xlink="http://www.w3.org/1999/xlink">
	<desc>
			Created with Pixso.
	</desc>
	<defs>
		<clipPath id="clip32_471">
			<rect id="kg 1" width="24.000000" height="24.000000" transform="translate(4.000000 4.000000)" fill="white" fill-opacity="0"/>
		</clipPath>
		<clipPath id="clip32_472">
			<rect id="washing-powder" width="32.000000" height="32.000000" fill="white" fill-opacity="0"/>
		</clipPath>
	</defs>
	<rect id="washing-powder" width="32.000000" height="32.000000" fill="#FFFFFF" fill-opacity="0"/>
	<g clip-path="url(#clip32_472)">
		<rect id="kg 1" width="24.000000" height="24.000000" transform="translate(4.000000 4.000000)" fill="#FFFFFF" fill-opacity="0"/>
		<g clip-path="url(#clip32_471)">
			<path id="Vector" d="M24.3373 10.3997L18.9742 10.3997C19.5392 9.72266 19.88 8.85193 19.88 7.90308C19.88 5.75085 18.1292 4 15.9771 4C13.8249 4 12.074 5.75085 12.074 7.90308C12.074 8.85193 12.4148 9.72266 12.9799 10.3997L7.6167 10.3997L4.28125 28L27.6728 28L24.3373 10.3997ZM15.9771 5.40625C17.3537 5.40625 18.4738 6.52637 18.4738 7.90308C18.4738 9.27966 17.3537 10.3997 15.9771 10.3997C14.6003 10.3997 13.4803 9.27966 13.4803 7.90308C13.4803 6.52637 14.6003 5.40625 15.9771 5.40625ZM8.78143 11.8059L23.1726 11.8059L25.975 26.5938L5.979 26.5938L8.78143 11.8059Z" fill="#000000" fill-opacity="1.000000" fill-rule="nonzero"/>
			<path id="Vector" d="M16.0055 16.4026L14.4094 16.4026L12.1779 18.631L12.1779 16.4026L11.0309 16.4026L11.0309 22.0225L12.1779 22.0225L12.1779 20.1017L12.7563 19.5377L14.5044 22.0225L15.985 22.0225L13.5753 18.7496L16.0055 16.4026Z" fill="#000000" fill-opacity="1.000000" fill-rule="nonzero"/>
			<path id="Vector" d="M18.2747 20.0007L19.7903 20.0007L19.7903 20.6169C19.6685 20.7058 19.5026 20.793 19.2955 20.8767C19.0436 20.9786 18.7817 21.0303 18.5177 21.0303C18.2154 21.0303 17.9261 20.9626 17.6575 20.8293C17.3986 20.701 17.2063 20.5092 17.0701 20.2426C16.9294 19.9678 16.8582 19.6152 16.8582 19.1951C16.8582 18.8546 16.9186 18.5354 17.0371 18.2474C17.1041 18.0872 17.1995 17.938 17.3207 17.8035C17.4363 17.6753 17.5936 17.5691 17.7878 17.4879C17.9858 17.4053 18.2277 17.3634 18.5071 17.3634C18.7347 17.3634 18.9432 17.4028 19.1269 17.4805C19.3016 17.5542 19.4356 17.6511 19.5251 17.7681C19.6222 17.8948 19.7062 18.0775 19.7751 18.3113L19.8395 18.5302L20.8955 18.2405L20.8386 18.019C20.7417 17.6418 20.5959 17.329 20.4052 17.0886C20.2094 16.8419 19.939 16.6482 19.601 16.5127C19.2736 16.3815 18.9044 16.3149 18.5036 16.3149C17.9539 16.3149 17.4592 16.4307 17.0331 16.6588C16.5969 16.8925 16.2585 17.2534 16.028 17.7314C15.8037 18.1962 15.6902 18.7026 15.6902 19.2373C15.6902 19.7786 15.8052 20.277 16.0324 20.7185C16.2648 21.1704 16.6132 21.5203 17.0684 21.7587C17.5139 21.9922 18.0145 22.1106 18.5563 22.1106C18.9579 22.1106 19.3547 22.0376 19.7357 21.8933C20.1131 21.7506 20.4832 21.5356 20.8356 21.2546L20.9233 21.1848L20.9233 18.9271L18.2747 18.9314L18.2747 20.0007Z" fill="#000000" fill-opacity="1.000000" fill-rule="nonzero"/>
		</g>
	</g>
</svg>
